<?xml version="1.0" encoding="UTF-8"?>
<svg id="Layer_1" data-name="Layer 1" xmlns="http://www.w3.org/2000/svg" viewBox="0 0 188.76 177.15">
  <defs>
    <style>
      .cls-1, .cls-2 {
        stroke-width: 0px;
      }

      .cls-2 {
        fill: #fff;
      }
    </style>
  </defs>
  <path class="cls-2" d="M0,177.15V0h188.76v177.15H0ZM41.83,100.9c-1.35,0-2.66.02-3.98,0-1.55-.03-2.34.54-2.25,2.24.11,2.07.02,4.14.03,6.22q0,2.88,2.9,2.88c15.1,0,30.2,0,45.3,0h1.68c.84,3.58,1.45,6.82,2.38,9.96,1.09,3.69,2.84,7.03,5.37,10.07,6.18,7.45,14.06,11.57,23.58,12.44,13.74,1.27,24.74-3.87,32.82-14.98,3.36-4.62,4.36-10.19,5.12-15.71.23-1.69-.31-3.49-.57-5.23-.76-5.24-2.46-10.03-5.8-14.3-3.3-4.21-7.2-7.5-11.95-9.9-5.92-3-12.18-4.07-18.75-3.68-1.3.08-2.6.28-4.12.44,0-2.34.06-4.52-.02-6.69-.05-1.37.22-2.13,1.76-2.56.95-.26,1.97-1.32,2.37-2.27.5-1.19.4-2.63.58-4.13.17-.02.62-.07,1.06-.09,2.31-.08,2.44-.2,2.46-2.48,0-1.24,0-2.49,0-3.78.65-.06,1.05-.11,1.44-.13,2.15-.08,2.33-.27,2.34-2.45.01-1.67-.09-3.35.03-5.01.12-1.62-.47-2.5-2.02-3.09-7.25-2.74-14.48-5.57-21.7-8.39-6.53-2.55-13.05-5.12-19.56-7.71-1.73-.69-3.29-.75-5.07.11-2.53,1.22-5.25,2.02-7.88,3.03-11.24,4.37-22.47,8.76-33.73,13.11-1.24.48-1.88,1.15-1.78,2.55.1,1.26.03,2.53.02,3.8-.02,4.21-.21,3.98,3.7,4.11.1,0,.19.1.45.24,0,.65,0,1.39,0,2.13q0,3.59,3.53,4.1c.05,0,.1.05.24.13-.85,3.43.77,5.48,3.9,6.71.31.12.55.83.55,1.27.03,6.33.04,12.66,0,18.99,0,.4-.32,1-.65,1.17-3.64,1.78-4.46,3.56-3.79,6.89Z"/>
  <path class="cls-1" d="M41.83,100.9c-.66-3.33.15-5.11,3.79-6.89.34-.16.65-.77.65-1.17.04-6.33.04-12.66,0-18.99,0-.44-.24-1.15-.55-1.27-3.13-1.22-4.75-3.27-3.9-6.71-.14-.08-.18-.13-.24-.13q-3.53-.51-3.53-4.1c0-.74,0-1.47,0-2.13-.26-.14-.35-.23-.45-.24-3.91-.13-3.72.1-3.7-4.11,0-1.27.08-2.54-.02-3.8-.11-1.4.53-2.07,1.78-2.55,11.25-4.35,22.48-8.74,33.73-13.11,2.62-1.02,5.35-1.82,7.88-3.03,1.79-.86,3.34-.8,5.07-.11,6.51,2.59,13.03,5.16,19.56,7.71,7.22,2.82,14.45,5.65,21.7,8.39,1.55.59,2.14,1.46,2.02,3.09-.12,1.66-.02,3.34-.03,5.01-.01,2.18-.2,2.36-2.34,2.45-.39.02-.79.07-1.44.13,0,1.29,0,2.54,0,3.78-.01,2.28-.14,2.4-2.46,2.48-.45.02-.89.07-1.06.09-.18,1.5-.07,2.94-.58,4.13-.4.95-1.42,2.01-2.37,2.27-1.54.42-1.82,1.18-1.76,2.56.09,2.17.02,4.34.02,6.69,1.52-.17,2.82-.37,4.12-.44,6.56-.39,12.83.68,18.75,3.68,4.75,2.4,8.65,5.69,11.95,9.9,3.34,4.27,5.04,9.07,5.8,14.3.25,1.74.8,3.55.57,5.23-.76,5.52-1.76,11.09-5.12,15.71-8.08,11.12-19.08,16.25-32.82,14.98-9.52-.88-17.4-5-23.58-12.44-2.53-3.04-4.28-6.37-5.37-10.07-.93-3.14-1.54-6.38-2.38-9.96h-1.68c-15.1,0-30.2,0-45.3,0q-2.89,0-2.9-2.88c0-2.07.08-4.15-.03-6.22-.09-1.7.7-2.28,2.25-2.24,1.31.03,2.63,0,3.98,0ZM37.16,56.56c.75,0,1.48,0,2.21,0,26.67,0,53.33,0,80,0,3.72,0,3.67,0,3.68-3.81,0-1.11-.41-1.64-1.41-2.02-6.54-2.49-13.08-5.01-19.6-7.55-6.64-2.58-13.25-5.23-19.9-7.77-1-.38-2.33-.74-3.24-.4-7.32,2.71-14.58,5.59-21.86,8.42-5.19,2.01-10.38,4.04-15.59,6.01-4.75,1.8-4.76,1.78-4.42,6.63,0,.06.03.11.14.5ZM124.67,100.96c.65.54,1.04.97,1.52,1.24,3.76,2.09,7.58,4.09,11.32,6.22,3.61,2.05,5.66,5.12,5.69,9.38.03,2.85-1.07,5.36-2.22,7.9-.45.99-.5,2.16-.73,3.24.21.11.43.22.64.32,1.83-1.54,3.72-3.01,5.45-4.64.95-.9,1.6-2.11,2.47-3.1,1.83-2.1,2.93-4.45,3.03-7.29.31-8.72-2.84-15.94-9.09-21.98-4.45-4.3-9.71-6.95-15.69-8.11-2.57-.5-5.39-.99-7.87-.46-6.79,1.45-12.21,5.39-15.92,11.2-4.06,6.35-4.71,13.34-2.51,20.56.13.44.36.84.41.95.94-1.72,1.61-3.69,2.89-5.12,3.08-3.45,7.34-5.21,11.41-7.21,1.74-.85,3.29-2.08,5.05-3.23-.83-.68-1.3-1.01-1.71-1.41-2.5-2.42-2.29-6.59.41-8.68.88-.68,1.86-.97,2.58,0,.69.95.06,1.57-.87,2.16-1.8,1.13-1.61,3.83.24,4.84,2.32,1.27,3.86.77,5.09-1.55.47-.89,1.03-2.03,2.32-1.42,1.17.56.73,1.63.42,2.58-.65,1.94-2.22,2.83-4.32,3.61ZM106.65,86.87c-6.95,2.7-11.89,7.69-14.93,14.22-5.07,10.9-3,24.59,7.74,33.49,5.98,4.95,12.77,7.5,20.44,7.62,9.51.16,17.63-3.32,24.31-10.06,1.08-1.09,1.89-2.46,2.83-3.7-5.14,3.8-10.64,6.4-16.94,7.07-10.61,1.13-19.75-2.07-26.86-10.02-3.83-4.28-6.29-9.45-6.69-15.37-.27-4.07-.04-8.15,1.75-11.83,2.08-4.26,4.19-8.59,8.34-11.43ZM122.43,103.22c-4.16,2.27-8.46,4.67-12.82,6.96-3.95,2.07-5.74,5.78-4.64,10.07.29,1.11.81,2.15,1.17,3.24.38,1.17,1.14,1.49,2.35,1.48,8.64-.05,17.29-.03,25.93-.03q4.46,0,5.65-4.38c.83-3.03.67-5.95-1.79-8.13-1.75-1.54-3.81-2.75-5.86-3.91-3.28-1.86-6.65-3.54-10-5.31ZM63.73,65.71c.65,3.83-.03,5.11-3.3,6.81-.37.19-.66.86-.68,1.32-.08,1.84-.03,3.68-.03,5.51,0,4.82,0,9.64,0,14.39,3.84,1.64,4.56,2.9,4.08,7.05h4.77c-.4-4.44.05-5.15,4.45-7.07,0-6.67.02-13.39-.05-20.11,0-.42-.58-1.01-1.02-1.21-2.63-1.18-3.64-2.51-3.53-4.9.03-.6.11-1.19.17-1.92-1.3,0-2.45,0-3.59,0-.4,0-.79.06-1.28.1ZM90.6,65.72c0,.37-.03.65,0,.93.43,3.15-.63,4.76-3.66,5.88-.42.16-.82,1-.83,1.53-.06,4.83-.04,9.66-.04,14.49,0,1.76,0,3.53,0,4.68,1.85,1.33,3.28,2.36,4.69,3.38,2.68-3.16,5.13-6.78,8.89-9.18.52-.33.83-1.34.85-2.04.08-3.68-.02-7.36.07-11.04.03-1.26-.4-1.82-1.58-2.18-1.98-.6-3.13-2.22-3.15-4.23,0-.72.14-1.43.23-2.22h-5.48ZM87.59,103.68h-48.84v5.92c.78,0,1.45,0,2.13,0,11.35,0,22.71-.02,34.06-.02,3.28,0,6.57.03,9.85-.03.53,0,1.39-.31,1.51-.67.54-1.66.86-3.38,1.29-5.2ZM40.82,62.79h77.8c.53-3.48.53-3.5-2.67-3.51-24.48-.02-48.96-.04-73.44-.05-.55,0-1.1.07-1.69.11v3.45ZM76.18,93.7h7v-20.8h-7v20.8ZM111.18,127.89c-.05.1-.1.2-.15.3.45.32.89.68,1.37.94,7.32,4.1,14.99,4.83,22.96,2.26,2.09-.68,2.28-1.22,1.5-3.5h-25.68ZM49.46,72.8v21.02c2.17,0,4.23.04,6.29-.04.3-.01.84-.62.84-.95.05-6.33.05-12.65,0-18.98,0-.35-.62-.98-.97-1-2-.1-4-.05-6.15-.05ZM52.89,70.05s0-.04,0-.06c1.89,0,3.79.03,5.68,0,1.81-.04,2.75-.82,2.68-2.2-.09-1.62-1.19-2.08-2.61-2.09-3.79-.02-7.58-.06-11.37-.05-1.69,0-2.72.92-2.69,2.25.03,1.31,1.08,2.14,2.79,2.16,1.84.02,3.67,0,5.51,0ZM79.61,65.69s0-.04,0-.06c-1.84,0-3.68-.02-5.52,0-1.72.02-2.73.87-2.72,2.22.01,1.34,1.03,2.19,2.75,2.19,3.57,0,7.13,0,10.7-.07.77-.02,1.61-.22,2.3-.56,1.32-.66,1.3-2.49-.03-3.16-.64-.32-1.41-.51-2.13-.54-1.78-.07-3.57-.02-5.35-.02ZM107.2,65.69s0-.04,0-.05c-1.96,0-3.91-.03-5.87,0-1.37.03-2.34.64-2.45,2.12-.1,1.31.88,2.24,2.46,2.28,1.9.05,3.8,0,5.7,0,2.01-.01,4.03.05,6.04-.09,1.28-.08,2.54-.9,2.32-2.18-.14-.8-1.49-1.4-2.34-2.04-.19-.14-.56-.04-.85-.04-1.67,0-3.34,0-5.01,0ZM79.48,100.89s0-.03,0-.04c1.95,0,3.91.04,5.86-.01,1.34-.04,2.57-.4,2.71-2.03.11-1.27-.95-2.13-2.75-2.16-3.85-.06-7.7-.05-11.56-.05-1.43,0-2.36.72-2.34,2.17.02,1.45.94,2.13,2.38,2.13,1.9,0,3.79,0,5.69,0ZM53.07,100.89v-.05c1.9,0,3.8-.01,5.71,0,1.4.01,2.37-.52,2.48-2.03.09-1.34-.82-2.16-2.49-2.18-3.86-.05-7.72-.06-11.59-.05-1.62,0-2.58.86-2.57,2.16,0,1.3.96,2.12,2.59,2.14,1.96.03,3.92,0,5.88,0ZM108.5,82.3c.18.15.37.29.55.44.6-.46,1.69-.88,1.72-1.38.17-2.79.08-5.59.08-8.61-2.36,0-4.48-.04-6.6.04-.35.01-.96.54-.96.83-.07,3.67-.04,7.33-.04,11.07,1.68-.03,2.5-.61,2.43-2.27-.08-1.89-.02-3.79-.02-5.69,0-1.04.11-2.13,1.44-2.1,1.3.03,1.39,1.15,1.4,2.17,0,1.83,0,3.66,0,5.49Z"/>
  <path class="cls-2" d="M37.16,56.56c-.11-.38-.14-.44-.14-.5-.34-4.85-.33-4.83,4.42-6.63,5.21-1.97,10.4-4,15.59-6.01,7.28-2.82,14.54-5.71,21.86-8.42.91-.34,2.24.02,3.24.4,6.65,2.54,13.27,5.19,19.9,7.77,6.52,2.54,13.06,5.06,19.6,7.55,1,.38,1.41.9,1.41,2.02,0,3.81.04,3.81-3.68,3.81-26.67,0-53.33,0-80,0-.73,0-1.47,0-2.21,0ZM86.4,46.29c.03-3.66-2.94-6.51-6.81-6.53-3.81-.02-6.89,2.9-6.86,6.52.03,3.57,2.99,6.39,6.76,6.45,3.83.06,6.88-2.78,6.91-6.44Z"/>
  <path class="cls-2" d="M124.67,100.96c2.1-.77,3.67-1.67,4.32-3.61.32-.95.75-2.02-.42-2.58-1.28-.61-1.85.53-2.32,1.42-1.22,2.32-2.77,2.82-5.09,1.55-1.85-1.01-2.04-3.71-.24-4.84.93-.58,1.57-1.2.87-2.16-.71-.98-1.7-.69-2.58,0-2.7,2.09-2.91,6.27-.41,8.68.41.4.88.73,1.71,1.41-1.76,1.14-3.31,2.37-5.05,3.23-4.07,2-8.33,3.76-11.41,7.21-1.28,1.43-1.95,3.4-2.89,5.12-.05-.11-.28-.51-.41-.95-2.2-7.22-1.54-14.21,2.51-20.56,3.71-5.81,9.13-9.75,15.92-11.2,2.48-.53,5.3-.04,7.87.46,5.99,1.16,11.24,3.81,15.69,8.11,6.26,6.04,9.41,13.26,9.09,21.98-.1,2.83-1.2,5.19-3.03,7.29-.87,1-1.51,2.21-2.47,3.1-1.74,1.63-3.63,3.1-5.45,4.64-.21-.11-.43-.22-.64-.32.23-1.09.28-2.25.73-3.24,1.15-2.53,2.24-5.04,2.22-7.9-.04-4.26-2.09-7.33-5.69-9.38-3.74-2.13-7.55-4.13-11.32-6.22-.49-.27-.88-.71-1.52-1.24ZM124.56,97.17c.27-.91.51-1.73.73-2.5-.76-.53-1.44-.99-2.08-1.43-.85.53-1.67,1.05-2.38,1.5.43.87.82,1.68,1.19,2.43h2.54Z"/>
  <path class="cls-2" d="M106.65,86.87c-4.15,2.84-6.27,7.18-8.34,11.43-1.8,3.68-2.03,7.76-1.75,11.83.4,5.92,2.85,11.09,6.69,15.37,7.11,7.94,16.25,11.15,26.86,10.02,6.3-.67,11.8-3.28,16.94-7.07-.93,1.24-1.74,2.61-2.83,3.7-6.69,6.73-14.8,10.21-24.31,10.06-7.67-.13-14.47-2.67-20.44-7.62-10.74-8.9-12.81-22.59-7.74-33.49,3.04-6.53,7.97-11.52,14.93-14.22Z"/>
  <path class="cls-2" d="M122.43,103.22c3.34,1.76,6.72,3.45,10,5.31,2.04,1.16,4.11,2.37,5.86,3.91,2.46,2.17,2.63,5.09,1.79,8.13q-1.2,4.38-5.65,4.38c-8.64,0-17.29-.02-25.93.03-1.21,0-1.96-.31-2.35-1.48-.36-1.09-.88-2.13-1.17-3.24-1.11-4.29.69-8,4.64-10.07,4.36-2.29,8.66-4.7,12.82-6.96Z"/>
  <path class="cls-2" d="M63.73,65.71c.49-.04.88-.1,1.28-.1,1.14-.01,2.29,0,3.59,0-.07.73-.15,1.33-.17,1.92-.11,2.39.9,3.72,3.53,4.9.45.2,1.02.79,1.02,1.21.06,6.72.05,13.44.05,20.11-4.4,1.92-4.85,2.63-4.45,7.07h-4.77c.48-4.15-.24-5.42-4.08-7.05,0-4.76,0-9.58,0-14.39,0-1.84-.04-3.68.03-5.51.02-.46.31-1.13.68-1.32,3.27-1.7,3.95-2.98,3.3-6.81Z"/>
  <path class="cls-2" d="M90.6,65.72h5.48c-.09.79-.23,1.5-.23,2.22.02,2.01,1.17,3.63,3.15,4.23,1.18.36,1.61.92,1.58,2.18-.09,3.68.01,7.36-.07,11.04-.02.7-.33,1.71-.85,2.04-3.76,2.4-6.21,6.02-8.89,9.18-1.41-1.01-2.84-2.04-4.69-3.38,0-1.15,0-2.92,0-4.68,0-4.83-.03-9.66.04-14.49,0-.53.41-1.37.83-1.53,3.03-1.12,4.08-2.73,3.66-5.88-.04-.27,0-.55,0-.93Z"/>
  <path class="cls-2" d="M87.59,103.68c-.43,1.82-.76,3.54-1.29,5.2-.12.36-.98.66-1.51.67-3.28.06-6.57.03-9.85.03-11.35,0-22.71.02-34.06.02-.68,0-1.35,0-2.13,0v-5.92h48.84Z"/>
  <path class="cls-2" d="M40.82,62.79v-3.45c.59-.04,1.14-.11,1.69-.11,24.48.01,48.96.03,73.44.05,3.2,0,3.2.02,2.67,3.51H40.82Z"/>
  <path class="cls-2" d="M76.18,93.7v-20.8h7v20.8h-7ZM81.31,83.4c0-2.36.09-4.72-.06-7.07-.04-.6-.81-1.16-1.25-1.73-.5.58-1.42,1.15-1.43,1.75-.12,4.6-.12,9.2,0,13.8.02.61.81,1.58,1.39,1.7,1.08.22,1.37-.75,1.36-1.71,0-2.24,0-4.49,0-6.73Z"/>
  <path class="cls-2" d="M111.18,127.89h25.68c.78,2.28.59,2.83-1.5,3.5-7.97,2.58-15.64,1.84-22.96-2.26-.48-.27-.91-.63-1.37-.94.05-.1.1-.2.15-.3Z"/>
  <path class="cls-2" d="M49.46,72.8c2.15,0,4.15-.05,6.15.05.35.02.97.65.97,1,.06,6.32.06,12.65,0,18.98,0,.34-.53.94-.84.95-2.05.09-4.11.04-6.29.04v-21.02ZM51.43,83.25c0,2.3,0,4.6,0,6.9,0,1.07.36,1.8,1.57,1.79,1.2,0,1.59-.76,1.59-1.81,0-4.54,0-9.08,0-13.63,0-1.12-.42-1.95-1.69-1.9-1.2.05-1.48.89-1.47,1.92.01,2.24,0,4.48,0,6.73Z"/>
  <path class="cls-2" d="M52.89,70.05c-1.84,0-3.67.02-5.51,0-1.71-.02-2.75-.85-2.79-2.16-.03-1.32,1-2.24,2.69-2.25,3.79-.01,7.58.03,11.37.05,1.42,0,2.52.47,2.61,2.09.08,1.38-.87,2.16-2.68,2.2-1.89.04-3.79,0-5.68,0,0,.02,0,.04,0,.06Z"/>
  <path class="cls-2" d="M79.61,65.69c1.78,0,3.57-.05,5.35.02.72.03,1.49.21,2.13.54,1.32.67,1.34,2.5.03,3.16-.69.35-1.52.55-2.3.56-3.57.07-7.13.07-10.7.07-1.72,0-2.74-.85-2.75-2.19-.01-1.35,1.01-2.19,2.72-2.22,1.84-.02,3.68,0,5.52,0,0,.02,0,.04,0,.06Z"/>
  <path class="cls-2" d="M107.2,65.69c1.67,0,3.34,0,5.01,0,.29,0,.66-.1.85.04.85.63,2.2,1.24,2.34,2.04.22,1.28-1.04,2.09-2.32,2.18-2.01.13-4.03.07-6.04.09-1.9.01-3.8.05-5.7,0-1.58-.04-2.56-.97-2.46-2.28.11-1.48,1.08-2.09,2.45-2.12,1.96-.04,3.91,0,5.87,0,0,.02,0,.04,0,.05Z"/>
  <path class="cls-2" d="M79.48,100.89c-1.9,0-3.79,0-5.69,0-1.44,0-2.37-.68-2.38-2.13-.02-1.45.91-2.17,2.34-2.17,3.85,0,7.7,0,11.56.05,1.8.03,2.86.89,2.75,2.16-.14,1.63-1.37,1.99-2.71,2.03-1.95.05-3.91.01-5.86.01,0,.01,0,.03,0,.04Z"/>
  <path class="cls-2" d="M53.07,100.89c-1.96,0-3.92.02-5.88,0-1.63-.02-2.59-.84-2.59-2.14,0-1.3.96-2.15,2.57-2.16,3.86-.01,7.72,0,11.59.05,1.68.02,2.59.83,2.49,2.18-.1,1.51-1.07,2.04-2.48,2.03-1.9-.01-3.8,0-5.71,0v.05Z"/>
  <path class="cls-2" d="M108.5,82.3c0-1.83,0-3.66,0-5.49,0-1.02-.09-2.14-1.4-2.17-1.33-.03-1.44,1.06-1.44,2.1,0,1.9-.07,3.8.02,5.69.07,1.66-.75,2.24-2.43,2.27,0-3.74-.02-7.41.04-11.07,0-.3.62-.82.96-.83,2.12-.08,4.24-.04,6.6-.04,0,3.02.09,5.82-.08,8.61-.03.49-1.12.92-1.72,1.38-.18-.15-.37-.29-.55-.44Z"/>
  <path class="cls-1" d="M86.4,46.29c-.03,3.66-3.07,6.49-6.91,6.44-3.77-.05-6.73-2.88-6.76-6.45-.03-3.62,3.04-6.54,6.86-6.52,3.87.02,6.84,2.87,6.81,6.53ZM83.62,46.12c0-1.97-1.88-3.62-4.09-3.59-1.76.02-3.92,1.96-3.95,3.55-.03,1.64,2.14,3.75,3.91,3.8,2.25.06,4.14-1.66,4.13-3.76Z"/>
  <path class="cls-1" d="M124.56,97.17h-2.54c-.37-.76-.77-1.57-1.19-2.43.72-.45,1.53-.96,2.38-1.5.65.44,1.32.91,2.08,1.43-.22.76-.47,1.59-.73,2.5Z"/>
  <path class="cls-1" d="M81.32,83.4c0,2.24,0,4.49,0,6.73,0,.96-.28,1.93-1.36,1.71-.57-.11-1.37-1.09-1.39-1.7-.12-4.6-.12-9.2,0-13.8.02-.59.93-1.17,1.43-1.75.44.58,1.21,1.13,1.25,1.73.15,2.35.06,4.71.06,7.07Z"/>
  <path class="cls-1" d="M51.43,83.25c0-2.24,0-4.48,0-6.73,0-1.03.27-1.87,1.47-1.92,1.28-.05,1.69.78,1.69,1.9,0,4.54,0,9.08,0,13.63,0,1.05-.39,1.8-1.59,1.81-1.21,0-1.58-.72-1.57-1.79,0-2.3,0-4.6,0-6.9Z"/>
  <path class="cls-2" d="M83.62,46.12c0,2.1-1.88,3.82-4.13,3.76-1.77-.05-3.94-2.15-3.91-3.8.03-1.59,2.19-3.53,3.95-3.55,2.21-.03,4.09,1.62,4.09,3.59Z"/>
</svg>