<?xml version="1.0" encoding="utf-8"?>
<!-- Generator: Adobe Illustrator 28.2.0, SVG Export Plug-In . SVG Version: 6.00 Build 0)  -->
<svg version="1.1" id="Layer_1" xmlns="http://www.w3.org/2000/svg" xmlns:xlink="http://www.w3.org/1999/xlink" x="0px" y="0px"
	 viewBox="0 0 190.5 87.9" style="enable-background:new 0 0 190.5 87.9;" xml:space="preserve">
<style type="text/css">
	.st0{fill:#010101;}
</style>
<g id="_x1203__x1228__x122D___x1300__x130E__x120D_">
	<g>
		<path class="st0" d="M28.3,8.3l0,0.3c0,2-1.7,3.6-3.7,3.6s-3.7-1.6-3.7-3.6V8.3h-2.5l0,0.3c0,2-1.7,3.6-3.7,3.6
			c-1,0-1.9-0.4-2.6-1.1c-0.5-0.5-0.9-1.1-1-1.8c0-0.2-0.1-0.5-0.1-0.7V8.3H7v10.6h24.9V8.3H28.3z M31.4,18.3H7.6V8.9h2.8
			c0.2,2.2,2,3.9,4.2,3.9c2.2,0,4.1-1.7,4.3-3.9h1.5c0.2,2.2,2,3.9,4.2,3.9c2.2,0,4.1-1.7,4.2-3.9h2.5L31.4,18.3L31.4,18.3z"/>
	</g>
	<g>
		<path class="st0" d="M32.2,6.6h-5.7l-0.2,0.5c0.3,0.4,0.5,0.9,0.5,1.4l0,0.1c0,1.2-1,2.1-2.2,2.1s-2.2-0.9-2.2-2.1l0-0.1
			c0-0.5,0.2-1,0.5-1.4l-0.2-0.5h-6.3l-0.2,0.5c0.3,0.4,0.5,0.9,0.5,1.4l0,0.1c0,1.2-1,2.1-2.2,2.1s-2.2-0.9-2.2-2.1l0-0.1
			c0-0.5,0.2-1,0.5-1.4l-0.2-0.5h-6L6.5,6.9v1.7l0.3,0.3h3.6c0.2,2.2,2,3.9,4.2,3.9c2.2,0,4.1-1.7,4.3-3.9h1.5
			c0.2,2.2,2,3.9,4.2,3.9c2.2,0,4.1-1.7,4.2-3.9h3.3l0.3-0.3V6.9L32.2,6.6z M28.3,8.6c0,2-1.7,3.6-3.7,3.6s-3.7-1.6-3.7-3.6
			l-0.2-0.3h0v0h-2l-0.3,0.3c0,2-1.7,3.6-3.7,3.6c-1,0-1.9-0.4-2.6-1.1c-0.5-0.5-0.9-1.1-1-1.8c0-0.2-0.1-0.5-0.1-0.7l-0.2-0.3l0,0
			H7V7.2h5.2C12,7.5,11.9,8,11.9,8.5c0,0,0,0.1,0,0.2c0.1,1.4,1.3,2.6,2.7,2.6c1.4,0,2.7-1.2,2.7-2.6c0-0.1,0-0.1,0-0.2
			c0-0.5-0.1-0.9-0.3-1.3h5.2C22,7.6,21.9,8,21.9,8.5c0,0,0,0.1,0,0.2c0.1,1.4,1.3,2.6,2.7,2.6c1.4,0,2.7-1.2,2.7-2.6
			c0-0.1,0-0.1,0-0.2c0-0.5-0.1-0.9-0.3-1.3h4.9v1.1h-3.3L28.3,8.6z"/>
		<path class="st0" d="M31.9,7.1v1.1h-3.3l0,0h-0.2l0,0.3c0,2-1.7,3.6-3.7,3.6s-3.7-1.6-3.7-3.6V8.3h-0.3v0h-2l0,0h-0.2l0,0.3
			c0,2-1.7,3.6-3.7,3.6c-1,0-1.9-0.4-2.6-1.1c-0.5-0.5-0.9-1.1-1-1.8c0-0.2-0.1-0.5-0.1-0.7V8.3h-0.2l0,0H7V7.2h5.2
			C12,7.5,11.9,8,11.9,8.5c0,0,0,0.1,0,0.2c0.1,1.4,1.3,2.6,2.7,2.6c1.4,0,2.7-1.2,2.7-2.6c0-0.1,0-0.1,0-0.2c0-0.5-0.1-0.9-0.3-1.3
			h5.2C22,7.6,21.9,8,21.9,8.5c0,0,0,0.1,0,0.2c0.1,1.4,1.3,2.6,2.7,2.6c1.4,0,2.7-1.2,2.7-2.6c0-0.1,0-0.1,0-0.2
			c0-0.5-0.1-0.9-0.3-1.3L31.9,7.1L31.9,7.1z"/>
	</g>
	<g>
		<path class="st0" d="M71.9,19.8c0-0.1,0-0.2-0.1-0.3h-0.2v0.6h0.3C71.9,20,71.9,19.9,71.9,19.8z M71.5,18.5l-0.1-0.2h-0.2v0.6h0.4
			C71.6,18.8,71.6,18.6,71.5,18.5z M6.8,19.6l-0.3,0.3v0.2h25.4v-0.2l-0.3-0.3H6.8z M7,18.3v0.6h24.9v-0.6H7z"/>
		<path class="st0" d="M71.6,19.5v0.6h0.3v0.1c0,2.3-1.9,4.2-4.2,4.2c-2.4,0-4.3-1.9-4.3-4.2v-0.2h-1v0.2c0,2.3-1.9,4.2-4.2,4.2
			c-2.4,0-4.3-1.9-4.3-4.2v-0.2h-0.8v0.2c0,2.3-1.9,4.2-4.3,4.2s-4.2-1.9-4.2-4.2v-0.2h-1.5v0.2c0,2.3-1.9,4.2-4.3,4.2
			s-4.2-1.9-4.2-4.2v-0.2h-2.6v-0.2l-0.3-0.3H6.8l-0.3,0.3v0.2H5.1v-1.8H7v0.6H5.7v0.7h29.5l0,0.3v0.4c0,2,1.7,3.7,3.7,3.7
			c2.1,0,3.7-1.7,3.7-3.7c0-0.2,0-0.3,0-0.4l0-0.3h2.7l0,0.3v0.4c0,2,1.7,3.7,3.7,3.7c2.1,0,3.7-1.7,3.7-3.7c0-0.2,0-0.3,0-0.4
			l0-0.3h2l0,0.3c0,0.1,0,0.3,0,0.4c0,2,1.7,3.7,3.7,3.7c2,0,3.7-1.7,3.7-3.7v-0.4l-0.1-0.3h2.2l0,0.3c0,0.1,0,0.3,0,0.4
			c0,2,1.7,3.7,3.7,3.7c2,0,3.7-1.7,3.7-3.7c0-0.2,0-0.3,0-0.4c0-0.4-0.1-0.7-0.2-1H70c0.2,0.3,0.3,0.6,0.3,0.9c0,0.2,0,0.3,0,0.5
			c0,1.5-1.2,2.7-2.7,2.7s-2.7-1.2-2.7-2.7c0-0.2,0-0.3,0.1-0.5c0-0.3,0.2-0.6,0.3-0.9h-4.8c0.2,0.3,0.3,0.6,0.3,0.9
			c0,0.2,0.1,0.3,0.1,0.5c0,1.5-1.2,2.7-2.7,2.7c-1.5,0-2.7-1.2-2.7-2.7c0-0.2,0-0.3,0.1-0.5c0-0.3,0.2-0.6,0.3-0.9h-4.6
			c0.2,0.3,0.3,0.6,0.3,0.9c0,0.2,0.1,0.3,0.1,0.5c0,1.5-1.2,2.7-2.7,2.7c-1.5,0-2.7-1.2-2.7-2.7c0-0.2,0-0.3,0.1-0.5
			c0-0.3,0.2-0.6,0.3-0.9h-5.3c0.2,0.3,0.3,0.6,0.3,0.9c0,0.2,0.1,0.3,0.1,0.5c0,1.5-1.2,2.7-2.7,2.7c-1.5,0-2.7-1.2-2.7-2.7
			c0-0.2,0-0.3,0.1-0.5c0-0.3,0.2-0.6,0.3-0.9H32v-0.6h5.7l-0.4,0.5c-0.3,0.3-0.5,0.7-0.5,1.1c0,0.2-0.1,0.3-0.1,0.4
			c0,1.2,1,2.2,2.2,2.2c1.2,0,2.2-1,2.2-2.2c0-0.1,0-0.3,0-0.4c-0.1-0.4-0.3-0.8-0.6-1.1L40,18.3h7.7l-0.4,0.5
			c-0.3,0.3-0.5,0.7-0.6,1.1c0,0.2-0.1,0.3-0.1,0.4c0,1.2,1,2.2,2.2,2.2s2.2-1,2.2-2.2c0-0.1,0-0.3,0-0.4c-0.1-0.4-0.3-0.8-0.6-1.1
			L50,18.3h7l-0.4,0.5c-0.3,0.3-0.5,0.7-0.6,1.1c0,0.2,0,0.3,0,0.4c0,1.2,1,2.2,2.2,2.2c1.2,0,2.2-1,2.2-2.2c0-0.1,0-0.3-0.1-0.4
			c-0.1-0.4-0.3-0.8-0.6-1.1l-0.4-0.5h7.2L66,18.7c-0.3,0.3-0.5,0.7-0.6,1.1c0,0.2,0,0.3,0,0.4c0,1.2,1,2.2,2.2,2.2
			c1.2,0,2.2-1,2.2-2.2c0-0.1,0-0.3,0-0.4c-0.1-0.4-0.3-0.8-0.6-1.1l-0.4-0.4h2.5v0.6h3v0.6L71.6,19.5L71.6,19.5z"/>
		<path class="st0" d="M71.3,20.3c0,2-1.7,3.7-3.7,3.7c-2.1,0-3.7-1.7-3.7-3.7c0-0.2,0-0.3,0-0.4l0-0.3h-2.2l0,0.3v0.4
			c0,2-1.7,3.7-3.7,3.7c-2.1,0-3.7-1.7-3.7-3.7c0-0.2,0-0.3,0-0.4l0-0.3h-2l0,0.3c0,0.1,0,0.3,0,0.4c0,2-1.7,3.7-3.7,3.7
			c-2,0-3.7-1.7-3.7-3.7v-0.4l0-0.3h-2.7l0,0.3c0,0.1,0,0.3,0,0.4c0,2-1.7,3.7-3.7,3.7c-2,0-3.7-1.7-3.7-3.7v-0.4l0-0.3H5.7v-0.7
			h30.8c-0.2,0.3-0.3,0.6-0.3,0.9c0,0.2-0.1,0.3-0.1,0.5c0,1.5,1.2,2.7,2.7,2.7c1.5,0,2.7-1.2,2.7-2.7c0-0.2,0-0.3-0.1-0.5
			c0-0.3-0.2-0.6-0.3-0.9h5.3c-0.2,0.3-0.3,0.6-0.3,0.9c0,0.2-0.1,0.3-0.1,0.5c0,1.5,1.2,2.7,2.7,2.7c1.5,0,2.7-1.2,2.7-2.7
			c0-0.2,0-0.3-0.1-0.5c0-0.3-0.2-0.6-0.3-0.9h4.6c-0.2,0.3-0.3,0.6-0.3,0.9c0,0.2-0.1,0.3-0.1,0.5c0,1.5,1.2,2.7,2.7,2.7
			c1.5,0,2.7-1.2,2.7-2.7c0-0.2,0-0.3-0.1-0.5c0-0.3-0.2-0.6-0.3-0.9h4.8c-0.2,0.3-0.3,0.6-0.3,0.9c0,0.2-0.1,0.3-0.1,0.5
			c0,1.5,1.2,2.7,2.7,2.7c1.5,0,2.7-1.2,2.7-2.7c0-0.2,0-0.3,0-0.5c-0.1-0.3-0.2-0.6-0.3-0.9H71c0.1,0.3,0.2,0.6,0.2,1
			C71.3,20,71.3,20.1,71.3,20.3z"/>
	</g>
	<g>
		<rect x="71.2" y="18.3" class="st0" width="3.3" height="0.6"/>
	</g>
	<g>
		<polygon class="st0" points="74.8,2.4 74.8,20.1 71.6,20.1 71.6,19.5 74.2,19.5 74.2,2.4 		"/>
	</g>
	<g>
		<path class="st0" d="M111.2,0.9l0.4,0.5c0.3,0.3,0.5,0.7,0.6,1.1c0,0.1,0,0.2,0,0.4c0,1.2-1,2.2-2.2,2.2c-1.2,0-2.2-1-2.2-2.2
			c0-0.1,0-0.3,0-0.4c0.1-0.4,0.3-0.8,0.6-1.1l0.4-0.5h-7.2l0.4,0.5c0.3,0.3,0.5,0.7,0.6,1.1c0,0.1,0,0.3,0,0.4c0,1.2-1,2.2-2.2,2.2
			c-1.2,0-2.2-1-2.2-2.2c0-0.1,0-0.3,0-0.4c0.1-0.4,0.3-0.8,0.6-1.1l0.4-0.5h-7l0.4,0.5c0.3,0.3,0.5,0.7,0.6,1.1c0,0.1,0,0.2,0,0.4
			c0,1.2-1,2.2-2.2,2.2c-1.2,0-2.2-1-2.2-2.2c0-0.1,0-0.3,0.1-0.4c0.1-0.4,0.2-0.8,0.5-1.1l0.4-0.5h-7.7l0.4,0.5
			c0.3,0.3,0.5,0.7,0.6,1.1c0,0.1,0,0.3,0,0.4c0,1.2-1,2.2-2.2,2.2c-1.2,0-2.2-1-2.2-2.2c0-0.2,0-0.3,0.1-0.4
			c0.1-0.4,0.2-0.8,0.5-1.1l0.4-0.5h-6.3v1.8H77v0.2c0,2.3,1.9,4.2,4.3,4.2s4.3-1.9,4.3-4.2V2.7H87v0.2c0,2.3,1.9,4.2,4.2,4.2
			c2.3,0,4.3-1.9,4.3-4.2V2.7h0.8v0.2c0,2.3,1.9,4.2,4.3,4.2c2.3,0,4.2-1.9,4.2-4.2V2.7h1v0.2c0,2.3,1.9,4.2,4.3,4.2
			c2.4,0,4.2-1.9,4.2-4.2V2.7h2.4V0.9C116.7,0.9,111.2,0.9,111.2,0.9z M113.7,2.2l0,0.3c0,0.1,0,0.3,0,0.4c0,2-1.7,3.7-3.7,3.7
			c-2.1,0-3.7-1.7-3.7-3.7c0-0.2,0-0.3,0-0.4l0-0.3h-2.2l0,0.3c0,0.1,0,0.3,0,0.4c0,2-1.7,3.7-3.7,3.7c-2.1,0-3.7-1.7-3.7-3.7
			c0-0.2,0-0.3,0-0.4l0-0.3h-2l0,0.3c0,0.1,0,0.3,0,0.4c0,2-1.7,3.7-3.7,3.7c-2,0-3.7-1.7-3.7-3.7V2.5l0-0.3h-2.7l0,0.3
			c0,0.1,0,0.3,0,0.4c0,2-1.7,3.7-3.7,3.7c-2,0-3.7-1.7-3.7-3.7c0-0.2,0-0.3,0-0.4l0-0.3h-3.3V1.5h4.6c-0.2,0.3-0.3,0.6-0.3,0.9
			c0,0.2-0.1,0.3-0.1,0.5c0,1.5,1.2,2.7,2.7,2.7c1.5,0,2.7-1.2,2.7-2.7c0-0.2,0-0.3-0.1-0.5c0-0.3-0.2-0.6-0.3-0.9h5.3
			c-0.2,0.3-0.3,0.6-0.3,0.9c0,0.2-0.1,0.3-0.1,0.5c0,1.5,1.2,2.7,2.7,2.7c1.5,0,2.7-1.2,2.7-2.7c0-0.2,0-0.4-0.1-0.5
			c0-0.3-0.2-0.6-0.3-0.9h4.6c-0.2,0.3-0.3,0.6-0.3,0.9c0,0.2-0.1,0.3-0.1,0.5c0,1.5,1.2,2.7,2.7,2.7c1.5,0,2.7-1.2,2.7-2.7
			c0-0.2,0-0.3,0-0.5c-0.1-0.3-0.2-0.6-0.3-0.9h4.8c-0.2,0.3-0.3,0.6-0.3,0.9c0,0.2-0.1,0.3-0.1,0.5c0,1.5,1.2,2.7,2.7,2.7
			c1.5,0,2.7-1.2,2.7-2.7c0-0.2,0-0.4,0-0.5c-0.1-0.3-0.2-0.6-0.4-0.9h3.8v0.7L113.7,2.2L113.7,2.2z"/>
		<path class="st0" d="M116.1,2.2h-2.4l0,0.3c0,0.1,0,0.3,0,0.4c0,2-1.7,3.7-3.7,3.7c-2.1,0-3.7-1.7-3.7-3.7c0-0.2,0-0.3,0-0.4
			l0-0.3h-2.2l0,0.3c0,0.1,0,0.3,0,0.4c0,2-1.7,3.7-3.7,3.7c-2.1,0-3.7-1.7-3.7-3.7c0-0.2,0-0.3,0-0.4l0-0.3h-2l0,0.3
			c0,0.1,0,0.3,0,0.4c0,2-1.7,3.7-3.7,3.7c-2,0-3.7-1.7-3.7-3.7V2.5l0-0.3h-2.7l0,0.3c0,0.1,0,0.3,0,0.4c0,2-1.7,3.7-3.7,3.7
			c-2,0-3.7-1.7-3.7-3.7c0-0.2,0-0.3,0-0.4l0-0.3h-3.3V1.5h4.6c-0.2,0.3-0.3,0.6-0.3,0.9c0,0.2-0.1,0.3-0.1,0.5
			c0,1.5,1.2,2.7,2.7,2.7c1.5,0,2.7-1.2,2.7-2.7c0-0.2,0-0.3-0.1-0.5c0-0.3-0.2-0.6-0.3-0.9h5.3c-0.2,0.3-0.3,0.6-0.3,0.9
			c0,0.2-0.1,0.3-0.1,0.5c0,1.5,1.2,2.7,2.7,2.7c1.5,0,2.7-1.2,2.7-2.7c0-0.2,0-0.4-0.1-0.5c0-0.3-0.2-0.6-0.3-0.9h4.6
			c-0.2,0.3-0.3,0.6-0.3,0.9c0,0.2-0.1,0.3-0.1,0.5c0,1.5,1.2,2.7,2.7,2.7c1.5,0,2.7-1.2,2.7-2.7c0-0.2,0-0.3,0-0.5
			c-0.1-0.3-0.2-0.6-0.3-0.9h4.8c-0.2,0.3-0.3,0.6-0.3,0.9c0,0.2-0.1,0.3-0.1,0.5c0,1.5,1.2,2.7,2.7,2.7c1.5,0,2.7-1.2,2.7-2.7
			c0-0.2,0-0.4,0-0.5c-0.1-0.3-0.2-0.6-0.4-0.9h3.8v0.7H116.1z"/>
	</g>
	<g>
		<polygon class="st0" points="1.2,36.9 1.2,37.3 117.1,37.3 117.1,37.8 0.6,37.8 0.6,36.3 117.1,36.3 117.1,36.9 		"/>
	</g>
	<g>
		<path class="st0" d="M31.6,19.6H6.8l-0.3,0.3v16.8l0.3,0.3h24.9l0.3-0.3V19.8L31.6,19.6z M31.4,36.3H7V20.1h24.3L31.4,36.3
			L31.4,36.3z"/>
	</g>
	<g>
		<path class="st0" d="M19.5,16.8c-1.4,0-2.5-1.1-2.5-2.6c0-1.4,1.1-2.6,2.5-2.6c1.4,0,2.5,1.2,2.5,2.6C22,15.7,20.9,16.8,19.5,16.8
			z M19.5,12.3c-1.1,0-2,0.9-2,2s0.9,2,2,2s2-0.9,2-2C21.5,13.2,20.6,12.3,19.5,12.3z"/>
	</g>
	<g>
		<path class="st0" d="M19.5,15.4c-0.6,0-1.1-0.5-1.1-1.1s0.5-1.1,1.1-1.1s1.1,0.5,1.1,1.1S20.1,15.4,19.5,15.4z M19.5,13.8
			c-0.3,0-0.5,0.2-0.5,0.5c0,0.3,0.2,0.5,0.5,0.5s0.5-0.2,0.5-0.5S19.8,13.8,19.5,13.8z"/>
	</g>
	<g>
		<polygon class="st0" points="58.4,86.7 51.3,86.7 51.3,86.1 57.8,86.1 57.8,37.5 58.4,37.5 		"/>
	</g>
	<g>
		<polygon class="st0" points="34.8,86.1 34.8,86.7 26.8,86.7 26.8,37.5 27.4,37.5 27.4,86.1 		"/>
	</g>
	<g>
		<path class="st0" d="M49.6,49.9c-0.1-0.1-0.2-0.2-0.2-0.2c-0.1-0.1-0.2-0.2-0.3-0.3c0,0-0.1-0.1-0.2-0.1c-0.1-0.1-0.2-0.2-0.3-0.3
			c-1.4-1.3-3.2-2-5.2-2.1c-0.1,0-0.2,0-0.3,0H43c-1.9,0-3.8,0.7-5.2,1.8c-0.1,0.1-0.2,0.1-0.3,0.2c-0.3,0.2-0.6,0.5-0.9,0.8
			c-0.1,0.1-0.2,0.2-0.2,0.3c-1.2,1.5-2,3.4-2,5.4v31.1l0.3,0.3h16.4l0.3-0.3V55.2C51.5,53.2,50.8,51.4,49.6,49.9z M51,86.1H35.1
			V55.3c0-1.7,0.6-3.4,1.5-4.7c0-0.1,0.1-0.2,0.2-0.2c0.9-1.2,2.2-2.1,3.7-2.6c0.1,0,0.2-0.1,0.3-0.1c0.7-0.2,1.5-0.3,2.3-0.3
			c0.7,0,1.4,0.1,2.1,0.3c0.1,0,0.2,0,0.3,0.1c1.2,0.4,2.3,1.1,3.2,2c0.1,0.1,0.2,0.2,0.3,0.3c0.1,0.1,0.1,0.1,0.2,0.2
			c1.1,1.4,1.8,3.1,1.8,4.9L51,86.1L51,86.1z"/>
		<path class="st0" d="M51,55.2v30.9h-1.3V55.2c0-1.5-0.6-2.9-1.4-4c0-0.1-0.1-0.2-0.2-0.2c-0.7-0.8-1.6-1.5-2.6-1.9
			c-0.1,0-0.2-0.1-0.3-0.1c-0.7-0.2-1.4-0.4-2.1-0.4c-0.8,0-1.6,0.2-2.3,0.4c-0.1,0-0.2,0.1-0.3,0.1c-1.1,0.5-2.1,1.2-2.7,2.2
			c-0.1,0.1-0.1,0.1-0.2,0.2c-0.7,1.1-1.1,2.3-1.1,3.7v30.8h-1.3V55.3c0-1.7,0.6-3.4,1.5-4.7c0-0.1,0.1-0.2,0.2-0.2
			c0.9-1.2,2.2-2.1,3.7-2.6c0.1,0,0.2-0.1,0.3-0.1c0.7-0.2,1.5-0.3,2.3-0.3c0.7,0,1.4,0.1,2.1,0.3c0.1,0,0.2,0,0.3,0.1
			c1.2,0.4,2.3,1.1,3.2,2c0.1,0.1,0.2,0.2,0.3,0.3c0.1,0.1,0.1,0.1,0.2,0.2C50.3,51.6,51,53.4,51,55.2z"/>
	</g>
	<g>
		<path class="st0" d="M48.2,51.2c0-0.1-0.1-0.2-0.2-0.2c-0.7-0.8-1.6-1.5-2.6-1.9c-0.1,0-0.2-0.1-0.3-0.1c-0.7-0.2-1.4-0.4-2.1-0.4
			c-0.8,0-1.6,0.2-2.3,0.4c-0.1,0-0.2,0.1-0.3,0.1c-1.1,0.5-2.1,1.2-2.7,2.2c-0.1,0.1-0.1,0.1-0.2,0.2c-0.7,1.1-1.1,2.3-1.1,3.7
			v31.1l0.3,0.3h12.7l0.3-0.3V55.2C49.6,53.7,49.1,52.3,48.2,51.2z M37,86.1V55.3c0-3.4,2.7-6.1,6.1-6.1c3.4,0,6.1,2.7,6.1,6.1v30.8
			H37z"/>
	</g>
	<g>
		<rect x="27.1" y="43.9" class="st0" width="31" height="0.3"/>
	</g>
	<g>
		<rect x="27.1" y="49.6" class="st0" width="9.8" height="0.3"/>
	</g>
	<g>
		<rect x="49.4" y="49.6" class="st0" width="8.7" height="0.3"/>
	</g>
	<g>
		<rect x="27.1" y="55.6" class="st0" width="7.7" height="0.3"/>
	</g>
	<g>
		<rect x="51.3" y="55.2" class="st0" width="6.9" height="0.3"/>
	</g>
	<g>
		<rect x="27.1" y="62.2" class="st0" width="7.7" height="0.3"/>
	</g>
	<g>
		<rect x="51.3" y="62.2" class="st0" width="6.9" height="0.3"/>
	</g>
	<g>
		<rect x="27.1" y="71.8" class="st0" width="7.7" height="0.3"/>
	</g>
	<g>
		<rect x="51.3" y="71.8" class="st0" width="6.9" height="0.3"/>
	</g>
	<g>
		<rect x="27.1" y="79.4" class="st0" width="7.7" height="0.3"/>
	</g>
	<g>
		<rect x="51.3" y="79.4" class="st0" width="6.9" height="0.3"/>
	</g>
	<g>
		<rect x="29.8" y="37.5" class="st0" width="0.3" height="6.5"/>
	</g>
	<g>
		<rect x="32.2" y="44" class="st0" width="0.3" height="5.9"/>
	</g>
	<g>
		<rect x="35.6" y="37.5" class="st0" width="0.3" height="6.5"/>
	</g>
	<g>
		<rect x="40.5" y="37.5" class="st0" width="0.3" height="6.5"/>
	</g>
	<g>
		<rect x="45.3" y="37.5" class="st0" width="0.3" height="6.5"/>
	</g>
	<g>
		<rect x="50.2" y="37.5" class="st0" width="0.3" height="6.5"/>
	</g>
	<g>
		<rect x="55.1" y="37.5" class="st0" width="0.3" height="6.5"/>
	</g>
	<g>
		<rect x="37.6" y="44" class="st0" width="0.3" height="5"/>
	</g>
	<g>
		<rect x="43.2" y="44" class="st0" width="0.3" height="3.1"/>
	</g>
	<g>
		<rect x="48.6" y="44" class="st0" width="0.3" height="5.5"/>
	</g>
	<g>
		<rect x="53.4" y="44" class="st0" width="0.3" height="5.8"/>
	</g>
	<g>
		<rect x="29.8" y="49.8" class="st0" width="0.3" height="5.9"/>
	</g>
	<g>
		<rect x="55.6" y="49.8" class="st0" width="0.3" height="5.6"/>
	</g>
	<g>
		<path class="st0" d="M40.7,47.4v0.3c-0.1,0-0.2,0.1-0.3,0.1v-0.4L40.7,47.4L40.7,47.4z"/>
		<path class="st0" d="M40.5,49.2c0.1,0,0.2-0.1,0.3-0.1v0.3h-0.3V49.2z"/>
	</g>
	<g>
		<path class="st0" d="M45.4,47.4v0.3c-0.1,0-0.2,0-0.3-0.1v-0.2H45.4z"/>
		<path class="st0" d="M45.2,49.1c0.1,0,0.2,0,0.3,0.1v0.2h-0.3V49.1z"/>
	</g>
	<g>
		<path class="st0" d="M36.6,50.3l0.1,0.1c0,0.1-0.1,0.2-0.2,0.2l-0.2-0.2L36.6,50.3z"/>
		<path class="st0" d="M37.9,51.6l-0.2,0.2l-0.2-0.2c0-0.1,0.1-0.2,0.2-0.2L37.9,51.6z"/>
	</g>
	<g>
		<path class="st0" d="M48,51c0.1,0.1,0.1,0.2,0.2,0.2L48,51.4l-0.2-0.2L48,51z"/>
		<path class="st0" d="M49.4,50.1l-0.2,0.2c0-0.1-0.1-0.2-0.2-0.2l0.2-0.2L49.4,50.1z"/>
	</g>
	<g>
		<rect x="34.8" y="55.6" class="st0" width="0.3" height="0.3"/>
		<rect x="36.4" y="55.6" class="st0" width="0.3" height="0.3"/>
	</g>
	<g>
		<rect x="49.4" y="55.2" class="st0" width="0.3" height="0.3"/>
		<rect x="51" y="55.2" class="st0" width="0.3" height="0.3"/>
	</g>
	<g>
		<rect x="34.8" y="62.2" class="st0" width="0.3" height="0.3"/>
		<rect x="36.4" y="62.2" class="st0" width="0.3" height="0.3"/>
	</g>
	<g>
		<rect x="49.4" y="62.2" class="st0" width="0.3" height="0.3"/>
		<rect x="51" y="62.2" class="st0" width="0.3" height="0.3"/>
	</g>
	<g>
		<rect x="23.1" y="37.5" class="st0" width="1.3" height="48.9"/>
	</g>
	<g>
		<rect x="18.6" y="37.5" class="st0" width="1.4" height="48.9"/>
	</g>
	<g>
		<rect x="15" y="37.5" class="st0" width="1.4" height="48.9"/>
	</g>
	<g>
		<rect x="10.9" y="37.5" class="st0" width="1" height="48.9"/>
	</g>
	<g>
		<rect x="6.8" y="37.5" class="st0" width="1" height="48.9"/>
	</g>
	<g>
		<rect x="2.6" y="37.5" class="st0" width="1" height="48.9"/>
	</g>
	<g>
		<polygon class="st0" points="6.8,37.8 6.8,41 3.6,37.9 3.6,37.8 		"/>
		<polygon class="st0" points="7.2,41.5 7,41.7 6.8,41.4 3.6,38.3 2.9,37.5 3.1,37.3 3.6,37.9 6.8,41 		"/>
	</g>
	<g>
		<polygon class="st0" points="10.9,37.8 10.9,40.8 7.9,37.8 		"/>
		<polygon class="st0" points="11.5,41.5 11.3,41.7 10.9,41.2 7.8,38.2 7.5,37.8 7.2,37.5 7.4,37.3 7.6,37.5 7.8,37.8 7.9,37.8 		
			"/>
	</g>
	<g>
		<polygon class="st0" points="15,37.8 15,40.8 11.9,37.8 		"/>
		<polygon class="st0" points="15.6,41.5 15.4,41.7 15,41.2 11.9,38.2 11.5,37.8 11.3,37.5 11.5,37.3 11.7,37.5 11.9,37.8 
			11.9,37.8 15,40.8 		"/>
	</g>
	<g>
		<polygon class="st0" points="18.6,37.8 18.6,40.3 16.4,38.1 16.4,37.8 		"/>
		<polygon class="st0" points="19.8,41.5 19.6,41.7 18.6,40.7 16.4,38.5 15.4,37.5 15.6,37.3 15.8,37.5 16.4,38.1 18.6,40.3 		"/>
	</g>
	<g>
		<polygon class="st0" points="23.1,37.8 23.1,41 19.9,37.8 19.9,37.8 		"/>
		<polygon class="st0" points="23.6,41.5 23.4,41.7 23.1,41.4 19.9,38.2 19.3,37.5 19.5,37.3 19.6,37.5 19.9,37.8 19.9,37.8 
			19.9,37.8 23.1,41 		"/>
	</g>
	<g>
		<polygon class="st0" points="26.8,37.8 26.8,41 24.4,38.6 24.4,37.8 		"/>
		<rect x="25" y="36.6" transform="matrix(0.7061 -0.7081 0.7081 0.7061 -20.5666 29.4264)" class="st0" width="0.3" height="5.8"/>
	</g>
	<g>
		<rect x="2.6" y="84.8" class="st0" width="24.5" height="1.9"/>
	</g>
	<g>
		<path class="st0" d="M8.9,22.4v2.7h2.7v-2.7H8.9z M11.1,24.6H9.5V23h1.6V24.6z"/>
		<rect x="9.5" y="23" class="st0" width="1.6" height="1.6"/>
	</g>
	<g>
		<path class="st0" d="M8.9,27v2.7h2.7V27H8.9z M11.1,29.2H9.5v-1.6h1.6V29.2z"/>
		<rect x="9.5" y="27.5" class="st0" width="1.6" height="1.6"/>
	</g>
	<g>
		<path class="st0" d="M8.9,31.5v2.7h2.7v-2.7H8.9z M11.1,33.7H9.5v-1.6h1.6V33.7z"/>
		<rect x="9.5" y="32.1" class="st0" width="1.6" height="1.6"/>
	</g>
	<g>
		<path class="st0" d="M12.8,22.4v12.7h12.6V22.4H12.8z M24.9,34.5H13.4V23h11.6V34.5z"/>
	</g>
	<g>
		<path class="st0" d="M12.4,22v13.6h13.6V22H12.4z M25.7,35.3h-13v-13h13V35.3z"/>
		<rect x="13.4" y="23" class="st0" width="11.6" height="11.6"/>
	</g>
	<g>
		<rect x="6.8" y="21.5" class="st0" width="4.9" height="0.3"/>
	</g>
	<g>
		<rect x="11.5" y="19.8" class="st0" width="0.3" height="16.8"/>
	</g>
	<g>
		<rect x="6.8" y="24.8" class="st0" width="2.4" height="0.3"/>
	</g>
	<g>
		<rect x="6.8" y="27.1" class="st0" width="2.4" height="0.3"/>
	</g>
	<g>
		<rect x="6.8" y="29.3" class="st0" width="2.4" height="0.3"/>
	</g>
	<g>
		<rect x="6.8" y="31.7" class="st0" width="2.4" height="0.3"/>
	</g>
	<g>
		<path class="st0" d="M26.8,22.4v2.7h2.7v-2.7H26.8z M28.9,24.6h-1.6V23h1.6V24.6z"/>
		<rect x="27.3" y="23" class="st0" width="1.6" height="1.6"/>
	</g>
	<g>
		<path class="st0" d="M26.8,27v2.7h2.7V27H26.8z M28.9,29.2h-1.6v-1.6h1.6V29.2z"/>
		<rect x="27.3" y="27.5" class="st0" width="1.6" height="1.6"/>
	</g>
	<g>
		<path class="st0" d="M26.8,31.5v2.7h2.7v-2.7H26.8z M28.9,33.7h-1.6v-1.6h1.6V33.7z"/>
		<rect x="27.3" y="32.1" class="st0" width="1.6" height="1.6"/>
	</g>
	<g>
		<rect x="26.7" y="21.5" class="st0" width="4.9" height="0.3"/>
	</g>
	<g>
		<rect x="26.6" y="19.8" class="st0" width="0.3" height="16.8"/>
	</g>
	<g>
		<rect x="29.2" y="24.8" class="st0" width="2.4" height="0.3"/>
	</g>
	<g>
		<rect x="29.2" y="27.1" class="st0" width="2.4" height="0.3"/>
	</g>
	<g>
		<rect x="29.2" y="29.3" class="st0" width="2.4" height="0.3"/>
	</g>
	<g>
		<rect x="29.2" y="31.7" class="st0" width="2.4" height="0.3"/>
	</g>
	<g>
		<rect x="6.8" y="35.3" class="st0" width="4.9" height="0.3"/>
	</g>
	<g>
		<rect x="11.7" y="20.9" class="st0" width="15.1" height="0.3"/>
	</g>
	<g>
		<path class="st0" d="M38.5,26.1v9.6h28.9v-9.6H38.5z M66.9,35.1H39.1v-8.5h27.8C66.9,26.7,66.9,35.1,66.9,35.1z"/>
		<rect x="39.1" y="26.7" class="st0" width="27.8" height="8.5"/>
	</g>
	<g>
		<rect x="20.6" y="8.3" class="st0" width="0.3" height="0.6"/>
	</g>
	<g>
		<path class="st0" d="M179.5,8.3v0.3c0,0.2,0,0.5-0.1,0.7c-0.2,0.7-0.6,1.3-1.1,1.8c-0.7,0.6-1.6,1.1-2.6,1.1c-2,0-3.7-1.6-3.7-3.6
			l0-0.3h-2.5v0.3c-0.1,2-1.7,3.6-3.7,3.6s-3.7-1.6-3.7-3.6l0-0.3h-3.6v10.6h24.9V8.3H179.5z M182.8,18.3H159V8.9h2.5
			c0.2,2.2,2.1,3.9,4.2,3.9c2.2,0,4.1-1.7,4.2-3.9h1.5c0.2,2.2,2.1,3.9,4.2,3.9c2.2,0,4.1-1.7,4.2-3.9h2.8L182.8,18.3L182.8,18.3z"
			/>
	</g>
	<g>
		<path class="st0" d="M183.6,6.6h-6l-0.2,0.5c0.4,0.4,0.5,0.9,0.6,1.4l0,0.1c0,1.2-1,2.1-2.2,2.1s-2.1-0.9-2.2-2.1V8.5
			c0-0.5,0.2-1,0.5-1.4l-0.2-0.5h-6.3l-0.2,0.5c0.4,0.4,0.5,0.9,0.6,1.4l0,0.1c0,1.2-1,2.1-2.2,2.1s-2.1-0.9-2.2-2.1V8.5
			c0-0.5,0.2-1,0.5-1.4l-0.2-0.5h-5.7l-0.3,0.3v1.7l0.3,0.3h3.3c0.2,2.2,2.1,3.9,4.2,3.9c2.2,0,4.1-1.7,4.2-3.9h1.5
			c0.2,2.2,2.1,3.9,4.2,3.9c2.2,0,4.1-1.7,4.2-3.9h3.6l0.3-0.3V6.9L183.6,6.6z M183.3,8.3h-3.6l0,0l-0.2,0.3c0,0.2,0,0.5-0.1,0.7
			c-0.2,0.7-0.6,1.3-1.1,1.8c-0.7,0.6-1.6,1.1-2.6,1.1c-2,0-3.7-1.6-3.7-3.6l-0.3-0.3h-2v0h0l-0.2,0.3c-0.1,2-1.7,3.6-3.7,3.6
			s-3.7-1.6-3.7-3.6l-0.3-0.3h-3.3V7.1h4.9C163.2,7.5,163,8,163,8.5c0,0,0,0.1,0,0.2c0.1,1.4,1.3,2.6,2.7,2.6c1.4,0,2.6-1.2,2.7-2.6
			c0-0.1,0-0.1,0-0.2c0-0.5-0.1-0.9-0.3-1.3h5.2C173.2,7.5,173,8,173,8.5v0.2c0.1,1.4,1.3,2.6,2.7,2.6c1.4,0,2.6-1.2,2.7-2.6
			c0-0.1,0-0.1,0-0.2c0-0.5-0.1-0.9-0.3-1.3h5.1L183.3,8.3L183.3,8.3z"/>
		<path class="st0" d="M183.3,7.1v1.1h-3.6l0,0h-0.2v0.3c0,0.2,0,0.5-0.1,0.7c-0.2,0.7-0.6,1.3-1.1,1.8c-0.7,0.6-1.6,1.1-2.6,1.1
			c-2,0-3.7-1.6-3.7-3.6l0-0.3h-0.2l0,0h-2v0h-0.3v0.3c-0.1,2-1.7,3.6-3.7,3.6s-3.7-1.6-3.7-3.6l0-0.3h-0.2l0,0h-3.3V7.1h4.9
			C163.2,7.5,163,8,163,8.5c0,0,0,0.1,0,0.2c0.1,1.4,1.3,2.6,2.7,2.6c1.4,0,2.6-1.2,2.7-2.6c0-0.1,0-0.1,0-0.2
			c0-0.5-0.1-0.9-0.3-1.3h5.2C173.2,7.5,173,8,173,8.5v0.2c0.1,1.4,1.3,2.6,2.7,2.6c1.4,0,2.6-1.2,2.7-2.6c0-0.1,0-0.1,0-0.2
			c0-0.5-0.1-0.9-0.3-1.3L183.3,7.1L183.3,7.1z"/>
	</g>
	<g>
		<path class="st0" d="M152.7,18.3l0.4,0.5c0.3,0.3,0.5,0.7,0.6,1.1c0,0.1,0.1,0.3,0.1,0.4c0,1.2-1,2.2-2.2,2.2
			c-1.2,0-2.2-1-2.2-2.2c0-0.1,0-0.3,0.1-0.4c0-0.4,0.2-0.8,0.5-1.1l0.4-0.5h-7.7l0.4,0.5c0.3,0.3,0.5,0.7,0.6,1.1
			c0,0.1,0.1,0.3,0.1,0.4c0,1.2-1,2.2-2.2,2.2s-2.2-1-2.2-2.2c0-0.1,0-0.3,0-0.4c0.1-0.4,0.3-0.8,0.6-1.1l0.4-0.5h-7l0.4,0.5
			c0.3,0.3,0.5,0.7,0.6,1.1c0,0.1,0,0.3,0,0.4c0,1.2-1,2.2-2.2,2.2c-1.2,0-2.2-1-2.2-2.2c0-0.1,0-0.3,0.1-0.4
			c0.1-0.4,0.3-0.8,0.6-1.1l0.4-0.5H124l0.4,0.5c0.3,0.3,0.5,0.7,0.6,1.1c0,0.1,0,0.3,0,0.4c0,1.2-1,2.2-2.2,2.2
			c-1.2,0-2.2-1-2.2-2.2c0-0.1,0-0.3,0-0.4c0.1-0.4,0.3-0.8,0.6-1.1l0.4-0.5H119l-0.1,0.2c-0.1,0.1-0.1,0.3-0.1,0.4
			c-0.1,0.2-0.1,0.4-0.1,0.6c0,0.1-0.1,0.2-0.1,0.3c0,0.1,0,0.2,0,0.3v0.1c0,2.3,1.9,4.2,4.2,4.2c2.4,0,4.3-1.9,4.3-4.2v-0.2h1v0.2
			c0,2.3,1.9,4.2,4.2,4.2c2.4,0,4.3-1.9,4.3-4.2v-0.2h0.8v0.2c0,2.3,1.9,4.2,4.3,4.2s4.2-1.9,4.2-4.2v-0.2h1.5v0.2
			c0,2.3,1.9,4.2,4.3,4.2s4.2-1.9,4.2-4.2v-0.2h29.4v-1.8L152.7,18.3L152.7,18.3z M184.7,19.5h-29.5l0,0.3v0.4c0,2-1.7,3.7-3.7,3.7
			c-2.1,0-3.7-1.7-3.7-3.7c0-0.2,0-0.3,0-0.4l0-0.3h-2.7l0,0.3v0.4c0,2-1.7,3.7-3.7,3.7c-2.1,0-3.7-1.7-3.7-3.7c0-0.2,0-0.3,0-0.4
			l0-0.3h-2l0,0.3c0,0.1,0,0.3,0,0.4c0,2-1.7,3.7-3.7,3.7c-2,0-3.7-1.7-3.7-3.7v-0.4l0-0.3h-2.2l0,0.3c0,0.1,0,0.3,0,0.4
			c0,2-1.7,3.7-3.7,3.7c-2,0-3.7-1.7-3.7-3.7v-0.4c0.1-0.3,0.1-0.7,0.3-1h1.1c-0.2,0.3-0.3,0.6-0.4,0.9c0,0.2,0,0.3,0,0.5
			c0,1.5,1.2,2.7,2.7,2.7s2.7-1.2,2.7-2.7c0-0.2,0-0.3,0-0.5c-0.1-0.3-0.2-0.6-0.4-0.9h4.8c-0.1,0.3-0.3,0.6-0.3,0.9
			c0,0.2-0.1,0.3-0.1,0.5c0,1.5,1.2,2.7,2.7,2.7c1.5,0,2.7-1.2,2.7-2.7c0-0.2,0-0.3-0.1-0.5c0-0.3-0.1-0.6-0.3-0.9h4.6
			c-0.2,0.3-0.3,0.6-0.3,0.9c0,0.2-0.1,0.3-0.1,0.5c0,1.5,1.2,2.7,2.7,2.7c1.5,0,2.7-1.2,2.7-2.7c0-0.2,0-0.3-0.1-0.5
			c0-0.3-0.2-0.6-0.3-0.9h5.3c-0.2,0.3-0.3,0.6-0.3,0.9c0,0.2-0.1,0.3-0.1,0.5c0,1.5,1.2,2.7,2.7,2.7c1.5,0,2.7-1.2,2.7-2.7
			c0-0.2,0-0.3-0.1-0.5c0-0.3-0.2-0.6-0.3-0.9h30.8L184.7,19.5L184.7,19.5z"/>
		<path class="st0" d="M184.7,19.5h-29.5l0,0.3v0.4c0,2-1.7,3.7-3.7,3.7c-2.1,0-3.7-1.7-3.7-3.7c0-0.2,0-0.3,0-0.4l0-0.3h-2.7l0,0.3
			v0.4c0,2-1.7,3.7-3.7,3.7c-2.1,0-3.7-1.7-3.7-3.7c0-0.2,0-0.3,0-0.4l0-0.3h-2l0,0.3c0,0.1,0,0.3,0,0.4c0,2-1.7,3.7-3.7,3.7
			c-2,0-3.7-1.7-3.7-3.7v-0.4l0-0.3h-2.2l0,0.3c0,0.1,0,0.3,0,0.4c0,2-1.7,3.7-3.7,3.7c-2,0-3.7-1.7-3.7-3.7v-0.4
			c0.1-0.3,0.1-0.7,0.3-1h1.1c-0.2,0.3-0.3,0.6-0.4,0.9c0,0.2,0,0.3,0,0.5c0,1.5,1.2,2.7,2.7,2.7s2.7-1.2,2.7-2.7c0-0.2,0-0.3,0-0.5
			c-0.1-0.3-0.2-0.6-0.4-0.9h4.8c-0.1,0.3-0.3,0.6-0.3,0.9c0,0.2-0.1,0.3-0.1,0.5c0,1.5,1.2,2.7,2.7,2.7c1.5,0,2.7-1.2,2.7-2.7
			c0-0.2,0-0.3-0.1-0.5c0-0.3-0.1-0.6-0.3-0.9h4.6c-0.2,0.3-0.3,0.6-0.3,0.9c0,0.2-0.1,0.3-0.1,0.5c0,1.5,1.2,2.7,2.7,2.7
			c1.5,0,2.7-1.2,2.7-2.7c0-0.2,0-0.3-0.1-0.5c0-0.3-0.2-0.6-0.3-0.9h5.3c-0.2,0.3-0.3,0.6-0.3,0.9c0,0.2-0.1,0.3-0.1,0.5
			c0,1.5,1.2,2.7,2.7,2.7c1.5,0,2.7-1.2,2.7-2.7c0-0.2,0-0.3-0.1-0.5c0-0.3-0.2-0.6-0.3-0.9h30.8L184.7,19.5L184.7,19.5z"/>
	</g>
	<g>
		<rect x="115.9" y="18.3" class="st0" width="3.3" height="0.6"/>
	</g>
	<g>
		<path class="st0" d="M118.7,18.9c-0.1,0.2-0.1,0.4-0.1,0.6h-2.4v-0.6H118.7z"/>
		<polygon class="st0" points="118.8,19.5 118.8,20.1 115.5,20.1 115.5,2.4 116.2,2.4 116.2,19.5 		"/>
	</g>
	<g>
		<polygon class="st0" points="189.7,36.3 189.7,37.8 116.4,37.8 116.4,37.3 189.2,37.3 189.2,36.9 116.4,36.9 116.4,36.3 		"/>
	</g>
	<g>
		<path class="st0" d="M183.6,19.6h-24.9l-0.3,0.3v16.8l0.3,0.3h24.9l0.3-0.3V19.8L183.6,19.6z M183.3,36.3H159V20.1h24.3V36.3z"/>
	</g>
	<g>
		<path class="st0" d="M170.9,16.8c-1.4,0-2.6-1.1-2.6-2.6c0-1.4,1.1-2.6,2.6-2.6c1.4,0,2.6,1.2,2.6,2.6
			C173.4,15.7,172.3,16.8,170.9,16.8z M170.9,12.3c-1.1,0-2,0.9-2,2s0.9,2,2,2s2-0.9,2-2C172.9,13.2,172,12.3,170.9,12.3z"/>
	</g>
	<g>
		<path class="st0" d="M170.9,15.4c-0.6,0-1.1-0.5-1.1-1.1s0.5-1.1,1.1-1.1c0.6,0,1.1,0.5,1.1,1.1C172,14.9,171.5,15.4,170.9,15.4z
			 M170.9,13.8c-0.3,0-0.5,0.2-0.5,0.5c0,0.3,0.2,0.5,0.5,0.5s0.5-0.2,0.5-0.5S171.2,13.8,170.9,13.8z"/>
	</g>
	<g>
		<polygon class="st0" points="139.1,86.7 132,86.7 132,37.5 132.5,37.5 132.5,86.1 139.1,86.1 		"/>
	</g>
	<g>
		<polygon class="st0" points="163.6,37.5 163.6,86.7 155.6,86.7 155.6,86.1 163,86.1 163,37.5 		"/>
	</g>
	<g>
		<path class="st0" d="M153.9,49.9c-0.1-0.1-0.1-0.2-0.2-0.3c-0.3-0.3-0.6-0.6-0.9-0.8c-0.1-0.1-0.2-0.2-0.3-0.2
			c-1.4-1.1-3.2-1.8-5.2-1.8h-0.1c-0.1,0-0.2,0-0.3,0c-1.9,0.1-3.7,0.8-5.2,2.1c-0.1,0.1-0.2,0.2-0.3,0.3c-0.1,0-0.1,0.1-0.1,0.1
			c-0.1,0.1-0.2,0.2-0.3,0.3v0c-0.1,0.1-0.1,0.2-0.2,0.2c-1.2,1.5-1.9,3.3-1.9,5.3v31.2l0.3,0.3h16.4l0.3-0.3V55.3
			C155.9,53.3,155.1,51.4,153.9,49.9z M155.3,86.1h-15.9V55.2c0-1.8,0.7-3.6,1.8-4.9c0-0.1,0.1-0.2,0.2-0.2c0.1-0.1,0.2-0.2,0.3-0.3
			c0.9-0.9,2-1.6,3.2-2c0.1,0,0.2,0,0.3-0.1c0.7-0.2,1.4-0.3,2.1-0.3c0.8,0,1.6,0.1,2.3,0.3c0.1,0,0.2,0.1,0.3,0.1
			c1.5,0.5,2.7,1.4,3.7,2.6c0.1,0.1,0.1,0.1,0.2,0.2v0c1,1.3,1.5,2.9,1.5,4.7L155.3,86.1L155.3,86.1z"/>
		<path class="st0" d="M155.3,55.3v30.8H154V55.3c0-1.4-0.4-2.7-1.1-3.7c0-0.1-0.1-0.2-0.2-0.2c-0.7-1-1.6-1.7-2.7-2.2
			c-0.1,0-0.2-0.1-0.3-0.1c-0.7-0.3-1.5-0.4-2.3-0.4c-0.8,0-1.5,0.1-2.1,0.4c-0.1,0-0.2,0-0.3,0.1c-1,0.4-1.9,1-2.6,1.9
			c-0.1,0.1-0.1,0.2-0.2,0.2c-0.9,1.1-1.4,2.5-1.4,4v30.9h-1.3V55.2c0-1.8,0.7-3.6,1.8-4.9c0-0.1,0.1-0.2,0.2-0.2
			c0.1-0.1,0.2-0.2,0.3-0.3c0.9-0.9,2-1.6,3.2-2c0.1,0,0.2,0,0.3-0.1c0.7-0.2,1.4-0.3,2.1-0.3c0.8,0,1.6,0.1,2.3,0.3
			c0.1,0,0.2,0.1,0.3,0.1c1.5,0.5,2.7,1.4,3.7,2.6c0.1,0.1,0.1,0.1,0.2,0.2v0C154.7,52,155.3,53.6,155.3,55.3z"/>
	</g>
	<g>
		<path class="st0" d="M152.8,51.6c0-0.1-0.1-0.2-0.2-0.2c-0.7-1-1.6-1.7-2.7-2.2c-0.1,0-0.2-0.1-0.3-0.1c-0.7-0.3-1.5-0.4-2.3-0.4
			c-0.8,0-1.5,0.1-2.1,0.4c-0.1,0-0.2,0-0.3,0.1c-1,0.4-1.9,1-2.6,1.9c-0.1,0.1-0.1,0.2-0.2,0.2c-0.9,1.1-1.4,2.5-1.4,4v31.2
			l0.3,0.3h12.7l0.3-0.3V55.3C154,53.9,153.6,52.6,152.8,51.6z M141.2,86.1V55.3c0-3.4,2.7-6.1,6.1-6.1s6.1,2.7,6.1,6.1v30.8H141.2z
			"/>
	</g>
	<g>
		<rect x="132.3" y="43.9" class="st0" width="31" height="0.3"/>
	</g>
	<g>
		<rect x="153.5" y="49.6" class="st0" width="9.8" height="0.3"/>
	</g>
	<g>
		<rect x="132.3" y="49.6" class="st0" width="8.7" height="0.3"/>
	</g>
	<g>
		<rect x="155.6" y="55.6" class="st0" width="7.7" height="0.3"/>
	</g>
	<g>
		<rect x="132.3" y="55.2" class="st0" width="6.9" height="0.3"/>
	</g>
	<g>
		<rect x="155.6" y="62.2" class="st0" width="7.7" height="0.3"/>
	</g>
	<g>
		<rect x="132.3" y="62.2" class="st0" width="6.9" height="0.3"/>
	</g>
	<g>
		<rect x="155.6" y="71.8" class="st0" width="7.7" height="0.3"/>
	</g>
	<g>
		<rect x="132.3" y="71.8" class="st0" width="6.9" height="0.3"/>
	</g>
	<g>
		<rect x="155.6" y="79.4" class="st0" width="7.7" height="0.3"/>
	</g>
	<g>
		<rect x="132.3" y="79.4" class="st0" width="6.9" height="0.3"/>
	</g>
	<g>
		<rect x="160.3" y="37.5" class="st0" width="0.3" height="6.5"/>
	</g>
	<g>
		<rect x="157.9" y="44" class="st0" width="0.3" height="5.9"/>
	</g>
	<g>
		<rect x="154.5" y="37.5" class="st0" width="0.3" height="6.5"/>
	</g>
	<g>
		<rect x="149.6" y="37.5" class="st0" width="0.3" height="6.5"/>
	</g>
	<g>
		<rect x="144.8" y="37.5" class="st0" width="0.3" height="6.5"/>
	</g>
	<g>
		<rect x="139.9" y="37.5" class="st0" width="0.3" height="6.5"/>
	</g>
	<g>
		<rect x="135" y="37.5" class="st0" width="0.3" height="6.5"/>
	</g>
	<g>
		<rect x="152.5" y="44" class="st0" width="0.3" height="5"/>
	</g>
	<g>
		<rect x="146.9" y="44" class="st0" width="0.3" height="3.1"/>
	</g>
	<g>
		<rect x="141.5" y="44" class="st0" width="0.3" height="5.5"/>
	</g>
	<g>
		<rect x="136.7" y="44" class="st0" width="0.3" height="5.8"/>
	</g>
	<g>
		<rect x="160.3" y="49.8" class="st0" width="0.3" height="5.9"/>
	</g>
	<g>
		<rect x="134.5" y="49.8" class="st0" width="0.3" height="5.6"/>
	</g>
	<g>
		<path class="st0" d="M149.9,47.4v0.4c-0.1,0-0.2-0.1-0.3-0.1v-0.3L149.9,47.4L149.9,47.4z"/>
		<path class="st0" d="M149.9,49.2v0.2h-0.3v-0.3C149.7,49.1,149.8,49.2,149.9,49.2z"/>
	</g>
	<g>
		<path class="st0" d="M145.2,47.4v0.2c-0.1,0-0.2,0-0.3,0.1v-0.3H145.2z"/>
		<path class="st0" d="M145.2,49.1v0.3h-0.3v-0.2C145,49.1,145.1,49.1,145.2,49.1z"/>
	</g>
	<g>
		<path class="st0" d="M152.8,51.6l-0.2,0.2l-0.2-0.2l0.2-0.2C152.7,51.4,152.8,51.5,152.8,51.6z"/>
		<path class="st0" d="M153.9,50.5l-0.1,0.2c-0.1-0.1-0.1-0.2-0.2-0.2l0.1-0.1L153.9,50.5z"/>
	</g>
	<g>
		<path class="st0" d="M141.4,50.1c-0.1,0.1-0.1,0.1-0.2,0.2l-0.2-0.2l0.2-0.2L141.4,50.1z"/>
		<path class="st0" d="M142.5,51.2l-0.2,0.2l-0.2-0.2c0-0.1,0.1-0.2,0.2-0.2L142.5,51.2z"/>
	</g>
	<g>
		<rect x="153.7" y="55.6" class="st0" width="0.3" height="0.3"/>
		<rect x="155.3" y="55.6" class="st0" width="0.3" height="0.3"/>
	</g>
	<g>
		<rect x="139.1" y="55.2" class="st0" width="0.3" height="0.3"/>
		<rect x="140.7" y="55.2" class="st0" width="0.3" height="0.3"/>
	</g>
	<g>
		<rect x="153.7" y="62.2" class="st0" width="0.3" height="0.3"/>
		<rect x="155.3" y="62.2" class="st0" width="0.3" height="0.3"/>
	</g>
	<g>
		<rect x="139.1" y="62.2" class="st0" width="0.3" height="0.3"/>
		<rect x="140.7" y="62.2" class="st0" width="0.3" height="0.3"/>
	</g>
	<g>
		<rect x="165.9" y="37.5" class="st0" width="1.3" height="48.9"/>
	</g>
	<g>
		<rect x="170.4" y="37.5" class="st0" width="1.4" height="48.9"/>
	</g>
	<g>
		<rect x="174" y="37.5" class="st0" width="1.4" height="48.9"/>
	</g>
	<g>
		<rect x="178.5" y="37.5" class="st0" width="1.1" height="48.9"/>
	</g>
	<g>
		<rect x="182.6" y="37.5" class="st0" width="1.1" height="48.9"/>
	</g>
	<g>
		<rect x="186.8" y="37.5" class="st0" width="1.1" height="48.9"/>
	</g>
	<g>
		<polygon class="st0" points="186.8,37.8 186.8,37.9 183.6,41 183.6,37.8 		"/>
		<polygon class="st0" points="187.5,37.5 186.8,38.3 183.6,41.4 183.4,41.7 183.2,41.5 183.6,41 186.8,37.9 187.3,37.3 		"/>
	</g>
	<g>
		<polygon class="st0" points="182.5,37.8 179.5,40.8 179.5,37.8 		"/>
		<polygon class="st0" points="183.2,37.5 182.9,37.8 182.6,38.2 179.5,41.2 179.1,41.7 178.9,41.5 182.5,37.8 182.6,37.8 
			182.8,37.5 183,37.3 		"/>
	</g>
	<g>
		<polygon class="st0" points="178.4,37.8 175.4,40.8 175.4,37.8 		"/>
		<polygon class="st0" points="179.1,37.5 178.8,37.8 178.5,38.2 175.4,41.2 175,41.7 174.8,41.5 175.4,40.8 178.4,37.8 178.5,37.8 
			178.7,37.5 178.9,37.3 		"/>
	</g>
	<g>
		<polygon class="st0" points="174,37.8 174,38.1 171.8,40.3 171.8,37.8 		"/>
		<polygon class="st0" points="175,37.5 174,38.5 171.8,40.7 170.8,41.7 170.6,41.5 171.8,40.3 174,38.1 174.6,37.5 174.8,37.3 		
			"/>
	</g>
	<g>
		<polygon class="st0" points="170.4,37.8 170.4,37.8 167.3,41 167.3,37.8 		"/>
		<polygon class="st0" points="171.1,37.5 170.4,38.2 167.3,41.4 167,41.7 166.8,41.5 167.3,41 170.4,37.8 170.4,37.8 170.5,37.8 
			170.7,37.5 170.9,37.3 		"/>
	</g>
	<g>
		<polygon class="st0" points="165.9,37.8 165.9,38.6 163.6,41 163.6,37.8 		"/>
		
			<rect x="162.3" y="39.4" transform="matrix(0.7071 -0.7071 0.7071 0.7071 20.4635 128.3877)" class="st0" width="5.8" height="0.3"/>
	</g>
	<g>
		<rect x="163.3" y="84.8" class="st0" width="24.5" height="1.9"/>
	</g>
	<g>
		<path class="st0" d="M178.7,22.4v2.7h2.7v-2.7H178.7z M180.9,24.6h-1.6V23h1.6V24.6z"/>
		<rect x="179.3" y="23" class="st0" width="1.6" height="1.6"/>
	</g>
	<g>
		<path class="st0" d="M178.7,27v2.7h2.7V27H178.7z M180.9,29.2h-1.6v-1.6h1.6V29.2z"/>
		<rect x="179.3" y="27.5" class="st0" width="1.6" height="1.6"/>
	</g>
	<g>
		<path class="st0" d="M178.7,31.5v2.7h2.7v-2.7H178.7z M180.9,33.7h-1.6v-1.6h1.6V33.7z"/>
		<rect x="179.3" y="32.1" class="st0" width="1.6" height="1.6"/>
	</g>
	<g>
		<path class="st0" d="M164.9,22.4v12.7h12.6V22.4H164.9z M177,34.5h-11.6V23H177V34.5z"/>
	</g>
	<g>
		<path class="st0" d="M164.4,22v13.6H178V22H164.4z M177.7,35.3h-13v-13h13V35.3z"/>
		<rect x="165.4" y="23" class="st0" width="11.6" height="11.6"/>
	</g>
	<g>
		<rect x="178.7" y="21.5" class="st0" width="4.9" height="0.3"/>
	</g>
	<g>
		<rect x="178.6" y="19.8" class="st0" width="0.3" height="16.8"/>
	</g>
	<g>
		<rect x="181.2" y="24.8" class="st0" width="2.4" height="0.3"/>
	</g>
	<g>
		<rect x="181.2" y="27.1" class="st0" width="2.4" height="0.3"/>
	</g>
	<g>
		<rect x="181.2" y="29.3" class="st0" width="2.4" height="0.3"/>
	</g>
	<g>
		<rect x="181.2" y="31.7" class="st0" width="2.4" height="0.3"/>
	</g>
	<g>
		<path class="st0" d="M160.9,22.4v2.7h2.7v-2.7H160.9z M163.1,24.6h-1.6V23h1.6V24.6z"/>
		<rect x="161.4" y="23" class="st0" width="1.6" height="1.6"/>
	</g>
	<g>
		<path class="st0" d="M160.9,27v2.7h2.7V27H160.9z M163.1,29.2h-1.6v-1.6h1.6V29.2z"/>
		<rect x="161.4" y="27.5" class="st0" width="1.6" height="1.6"/>
	</g>
	<g>
		<path class="st0" d="M160.9,31.5v2.7h2.7v-2.7H160.9z M163.1,33.7h-1.6v-1.6h1.6V33.7z"/>
		<rect x="161.4" y="32.1" class="st0" width="1.6" height="1.6"/>
	</g>
	<g>
		<rect x="158.7" y="21.5" class="st0" width="4.9" height="0.3"/>
	</g>
	<g>
		<rect x="163.5" y="19.8" class="st0" width="0.3" height="16.8"/>
	</g>
	<g>
		<rect x="158.7" y="24.8" class="st0" width="2.4" height="0.3"/>
	</g>
	<g>
		<rect x="158.7" y="27.1" class="st0" width="2.4" height="0.3"/>
	</g>
	<g>
		<rect x="158.7" y="29.3" class="st0" width="2.4" height="0.3"/>
	</g>
	<g>
		<rect x="158.7" y="31.7" class="st0" width="2.4" height="0.3"/>
	</g>
	<g>
		<rect x="178.7" y="35.3" class="st0" width="4.9" height="0.3"/>
	</g>
	<g>
		<rect x="163.6" y="20.9" class="st0" width="15.1" height="0.3"/>
	</g>
	<g>
		<path class="st0" d="M122.9,26.1v9.6h28.9v-9.6H122.9z M151.3,35.1h-27.8v-8.5h27.8V35.1z"/>
		<rect x="123.5" y="26.7" class="st0" width="27.8" height="8.5"/>
	</g>
	<g>
		<rect x="169.5" y="8.3" class="st0" width="0.3" height="0.6"/>
	</g>
	<g>
		<path class="st0" d="M86.9,9.7V30H104V9.7H86.9z M103.4,29.4h-16V10.2h16V29.4z"/>
		<path class="st0" d="M87.4,10.2v19.2h16V10.2H87.4z M103.2,29.1H87.7V10.6h15.5L103.2,29.1L103.2,29.1z"/>
	</g>
	<g>
		<path class="st0" d="M87.7,10.6v18.4h15.5V10.6H87.7z M102.7,28.6H88.2V11.1h14.5V28.6z"/>
	</g>
	<g>
		<path class="st0" d="M101.2,24.8v1.9H89.6v-1.4c0,0,1.9-2.2,2.9-2.3c0,0,1.2-0.3,1.2-0.8c0.4,0.5,0.8,0.8,1.3,0.8
			c0.6,0,1-0.3,1.4-0.9c0.2,0.1,1.6,1,2.3,1.2C98.9,23.3,101.2,24.4,101.2,24.8z"/>
		<path class="st0" d="M101.5,27H89.4v-1.8l0.1-0.1c0.2-0.2,2-2.2,3.1-2.4c0.5-0.1,1-0.4,1-0.5l0.1-0.7l0.4,0.6
			c0.2,0.3,0.6,0.7,1.1,0.7c0.5,0,0.9-0.4,1.2-0.8l0.2-0.2l0.2,0.2c0.2,0.1,1.6,1,2.2,1.2c2.6,1.2,2.6,1.6,2.6,1.8L101.5,27
			L101.5,27z M89.9,26.5H101v-1.6c-0.2-0.2-1.3-0.9-2.2-1.3c-0.6-0.2-1.6-0.8-2.1-1.1c-0.8,1-1.9,1.1-2.8,0.2
			c-0.3,0.3-1,0.5-1.2,0.6c-0.8,0.1-2.2,1.6-2.7,2.2C89.9,25.4,89.9,26.5,89.9,26.5z"/>
	</g>
	<g>
		<path class="st0" d="M89.4,26.1V12.7h12.2v12.2H101c-0.1-0.2-1.2-0.8-2.2-1.3c-0.6-0.2-1.6-0.8-2.1-1.1c-0.8,1-1.9,1.1-2.8,0.2
			c-0.3,0.3-1,0.5-1.2,0.6c-0.8,0.1-2.3,1.7-2.8,2.3L89.4,26.1z M89.9,13.2v11.4c0.7-0.7,1.8-1.8,2.6-1.9c0.5-0.1,1-0.4,1-0.5
			l0.1-0.7l0.4,0.6c0.2,0.3,0.6,0.7,1.1,0.7c0.5,0,0.9-0.4,1.2-0.8l0.2-0.2l0.2,0.2c0.2,0.1,1.6,1,2.2,1.2c1,0.5,1.7,0.8,2,1.1V13.2
			H89.9z"/>
	</g>
	<g>
		<polygon class="st0" points="132.2,86.7 130.5,86.2 130.5,37.5 131,37.5 131,85.8 132.3,86.1 		"/>
	</g>
	<g>
		<polygon class="st0" points="132.2,79.7 130.7,79.3 130.8,79 132.3,79.4 		"/>
	</g>
	<g>
		<polygon class="st0" points="132.2,72.1 130.7,71.7 130.8,71.4 132.3,71.8 		"/>
	</g>
	<g>
		<polygon class="st0" points="132.2,62.4 130.7,62 130.8,61.8 132.3,62.2 		"/>
	</g>
	<g>
		
			<rect x="131.4" y="54.1" transform="matrix(0.4769 -0.879 0.879 0.4769 20.5243 144.3302)" class="st0" width="0.3" height="1.7"/>
	</g>
	<g>
		<polygon class="st0" points="132.2,49.9 130.7,49.5 130.8,49.2 132.3,49.6 		"/>
	</g>
	<g>
		<polygon class="st0" points="132.2,44.2 130.7,43.8 130.8,43.5 132.3,43.9 		"/>
	</g>
	<g>
		<polygon class="st0" points="58.3,86.6 58.2,86.2 58.8,85.9 58.8,37.5 59.2,37.5 59.2,86.2 		"/>
	</g>
	<g>
		<polygon class="st0" points="58.3,79.7 58.2,79.5 58.9,79.1 59,79.3 		"/>
	</g>
	<g>
		<polygon class="st0" points="58.3,72 58.2,71.8 58.9,71.4 59,71.6 		"/>
	</g>
	<g>
		<polygon class="st0" points="58.3,62.4 58.2,62.2 58.9,61.8 59,62 		"/>
	</g>
	<g>
		<polygon class="st0" points="58.3,55.4 58.2,55.3 58.9,54.5 59.1,54.6 		"/>
	</g>
	<g>
		<polygon class="st0" points="58.3,49.9 58.2,49.7 58.9,49.3 59,49.5 		"/>
	</g>
	<g>
		<polygon class="st0" points="58.3,44.1 58.2,43.9 58.9,43.5 59,43.7 		"/>
	</g>
	<g>
		<path class="st0" d="M98.9,17.5c0,1.4-0.7,2.7-1.8,3.3c0.1-0.4,0.2-0.8,0.2-1.2c0.2-2.2-0.9-3.4-2.1-3.4S93,17.8,93,19.6
			c0,0.3,0,0.5,0.1,0.8c-0.8-0.7-1.3-1.8-1.3-2.9c0-2.1,1.6-3.8,3.5-3.8C97.3,13.7,98.9,15.4,98.9,17.5z"/>
	</g>
	<g>
		<path class="st0" d="M95.2,23.1c-0.5,0-1-0.3-1.5-0.8c-0.3-0.4-0.6-1.1-0.7-1.7l0,0l0-0.1c0-0.3-0.1-0.5-0.1-0.8
			c0-1.9,1-3.5,2.2-3.5c0.6,0,1.1,0.2,1.5,0.7c0.6,0.7,0.8,1.6,0.7,2.8l0,0c-0.1,0.4-0.1,0.8-0.2,1.2c-0.1,0.5-0.3,0.9-0.5,1.3
			C96.3,22.8,95.7,23.1,95.2,23.1z M93.2,20.3L93.2,20.3c0.1,0.8,0.4,1.4,0.7,1.8c0.4,0.5,0.8,0.7,1.2,0.7c0.6,0,1-0.5,1.3-0.8
			c0.2-0.3,0.4-0.8,0.5-1.2c0.1-0.4,0.2-0.8,0.2-1.2c0.1-1.1-0.1-2-0.6-2.6c-0.4-0.4-0.8-0.6-1.3-0.6c-1.1,0-2,1.4-2,3.2
			C93.2,19.9,93.2,20.1,93.2,20.3z"/>
	</g>
	<g>
		<polygon class="st0" points="96.5,22.2 96.5,22.2 96.5,21.9 		"/>
	</g>
	<g>
		<rect x="74.5" y="19.5" class="st0" width="12.6" height="0.6"/>
	</g>
	<g>
		<rect x="103.7" y="19.5" class="st0" width="12.1" height="0.6"/>
	</g>
</g>
</svg>
