<?xml version="1.0" encoding="utf-8"?>
<!-- Generator: Adobe Illustrator 28.2.0, SVG Export Plug-In . SVG Version: 6.00 Build 0)  -->
<svg version="1.1" id="Layer_1" xmlns="http://www.w3.org/2000/svg" xmlns:xlink="http://www.w3.org/1999/xlink" x="0px" y="0px"
	 viewBox="0 0 240 200" style="enable-background:new 0 0 240 200;" xml:space="preserve">
<style type="text/css">
	.st0{fill:#010101;}
</style>
<g id="_x1203__x1228__x122D___x1300__x130E__x120D_">
	<g>
		<path class="st0" d="M53.56,69.89l-0.02,0.26c-0.04,2-1.71,3.62-3.71,3.62c-2,0-3.66-1.62-3.73-3.62v-0.26h-2.54l-0.02,0.26
			c-0.04,2-1.71,3.62-3.71,3.62c-1.01,0-1.93-0.42-2.59-1.05c-0.5-0.5-0.88-1.14-1.05-1.84c-0.04-0.24-0.09-0.48-0.09-0.72v-0.26
			h-3.84v10.55h24.89V69.89H53.56z M56.61,79.89H32.81v-9.45h2.76c0.2,2.17,2.04,3.88,4.25,3.88c2.19,0,4.06-1.71,4.25-3.88h1.49
			c0.2,2.17,2.04,3.88,4.25,3.88c2.19,0,4.06-1.71,4.25-3.88h2.52V79.89z"/>
	</g>
	<g>
		<path class="st0" d="M57.4,68.18h-5.7l-0.22,0.46c0.35,0.39,0.53,0.9,0.55,1.4L52,70.15c-0.04,1.16-1.01,2.11-2.17,2.11
			s-2.15-0.94-2.17-2.11l-0.02-0.11c0-0.5,0.18-1.01,0.53-1.4l-0.2-0.46h-6.27l-0.22,0.46c0.35,0.39,0.53,0.9,0.55,1.4L42,70.15
			c-0.04,1.16-1.01,2.11-2.17,2.11c-1.16,0-2.15-0.94-2.17-2.11l-0.02-0.11c0-0.5,0.18-1.01,0.53-1.4l-0.2-0.46h-5.99l-0.26,0.29
			v1.69l0.26,0.29h3.6c0.2,2.17,2.04,3.88,4.25,3.88c2.19,0,4.06-1.71,4.25-3.88h1.49c0.2,2.17,2.04,3.88,4.25,3.88
			c2.19,0,4.06-1.71,4.25-3.88h3.31l0.29-0.29v-1.69L57.4,68.18z M53.54,70.15c-0.04,2-1.71,3.62-3.71,3.62
			c-2,0-3.66-1.62-3.73-3.62l-0.24-0.26h-0.02v-0.02h-2.02l-0.28,0.28c-0.04,2-1.71,3.62-3.71,3.62c-1.01,0-1.93-0.42-2.59-1.05
			c-0.5-0.5-0.88-1.14-1.05-1.84c-0.04-0.24-0.09-0.48-0.09-0.72l-0.24-0.26l-0.02-0.02h-3.57v-1.14h5.15
			c-0.22,0.39-0.33,0.86-0.33,1.32c0,0.04,0,0.09,0.02,0.18c0.07,1.43,1.27,2.59,2.72,2.59c1.43,0,2.65-1.16,2.72-2.61
			c0.02-0.07,0.02-0.11,0.02-0.15c0-0.46-0.13-0.92-0.35-1.32h5.2c-0.22,0.39-0.33,0.86-0.33,1.32c0,0.04,0,0.09,0.02,0.18
			c0.07,1.43,1.27,2.59,2.72,2.59c1.43,0,2.65-1.16,2.72-2.61c0.02-0.07,0.02-0.11,0.02-0.15c0-0.46-0.13-0.92-0.35-1.32h4.89v1.14
			h-3.29L53.54,70.15z"/>
		<path class="st0" d="M57.11,68.73v1.14h-3.29l-0.02,0.02h-0.24l-0.02,0.26c-0.04,2-1.71,3.62-3.71,3.62c-2,0-3.66-1.62-3.73-3.62
			v-0.26h-0.26v-0.02h-2.02l-0.02,0.02h-0.24l-0.02,0.26c-0.04,2-1.71,3.62-3.71,3.62c-1.01,0-1.93-0.42-2.59-1.05
			c-0.5-0.5-0.88-1.14-1.05-1.84c-0.04-0.24-0.09-0.48-0.09-0.72v-0.26h-0.24l-0.02-0.02h-3.57v-1.14h5.15
			c-0.22,0.39-0.33,0.86-0.33,1.32c0,0.04,0,0.09,0.02,0.18c0.07,1.43,1.27,2.59,2.72,2.59c1.43,0,2.65-1.16,2.72-2.61
			c0.02-0.07,0.02-0.11,0.02-0.15c0-0.46-0.13-0.92-0.35-1.32h5.2c-0.22,0.39-0.33,0.86-0.33,1.32c0,0.04,0,0.09,0.02,0.18
			c0.07,1.43,1.27,2.59,2.72,2.59c1.43,0,2.65-1.16,2.72-2.61c0.02-0.07,0.02-0.11,0.02-0.15c0-0.46-0.13-0.92-0.35-1.32H57.11z"/>
	</g>
	<g>
		<path class="st0" d="M97.09,81.36c0-0.09-0.02-0.2-0.07-0.29h-0.2v0.64h0.29C97.11,81.58,97.11,81.47,97.09,81.36z M96.72,80.04
			l-0.07-0.15h-0.18v0.64h0.42C96.87,80.35,96.8,80.2,96.72,80.04z M31.98,81.14l-0.26,0.29v0.24h25.44v-0.24l-0.29-0.29H31.98z
			 M32.26,79.89v0.55h24.89v-0.55H32.26z"/>
		<path class="st0" d="M96.83,81.07v0.64h0.29v0.13c0,2.35-1.91,4.25-4.25,4.25c-2.37,0-4.28-1.91-4.28-4.25v-0.18h-0.99v0.18
			c0,2.35-1.91,4.25-4.25,4.25c-2.37,0-4.28-1.91-4.28-4.25v-0.18h-0.77v0.18c0,2.35-1.93,4.25-4.28,4.25
			c-2.35,0-4.25-1.91-4.25-4.25v-0.18h-1.47v0.18c0,2.35-1.93,4.25-4.28,4.25c-2.35,0-4.25-1.91-4.25-4.25v-0.18h-2.61v-0.24
			l-0.29-0.29H31.98l-0.26,0.29v0.24h-1.38v-1.78h1.93v0.55h-1.38v0.68h29.47l-0.04,0.31v0.42c0,2.04,1.67,3.71,3.71,3.71
			c2.06,0,3.73-1.67,3.73-3.71c0-0.15,0-0.29-0.02-0.42l-0.04-0.31h2.68l-0.04,0.31v0.42c0,2.04,1.67,3.71,3.71,3.71
			c2.06,0,3.73-1.67,3.73-3.71c0-0.15,0-0.29-0.02-0.42l-0.04-0.31h2l-0.04,0.31c-0.02,0.13-0.02,0.26-0.02,0.42
			c0,2.04,1.67,3.71,3.73,3.71c2.04,0,3.71-1.67,3.71-3.71v-0.42L87,81.12h2.17l-0.02,0.31c-0.02,0.13-0.02,0.26-0.02,0.42
			c0,2.04,1.67,3.71,3.73,3.71c2.04,0,3.71-1.67,3.71-3.71c0-0.15,0-0.29-0.02-0.42c-0.04-0.37-0.13-0.68-0.24-0.99h-1.1
			c0.15,0.26,0.26,0.59,0.33,0.9c0.04,0.15,0.04,0.33,0.04,0.5c0,1.49-1.21,2.72-2.72,2.72c-1.51,0-2.74-1.23-2.74-2.72
			c0-0.18,0.02-0.35,0.07-0.53c0.04-0.31,0.15-0.61,0.33-0.88h-4.82c0.15,0.26,0.28,0.59,0.33,0.9c0.04,0.15,0.07,0.33,0.07,0.5
			c0,1.49-1.23,2.72-2.74,2.72c-1.51,0-2.74-1.23-2.74-2.72c0-0.2,0.02-0.35,0.07-0.53c0.04-0.31,0.15-0.61,0.33-0.88h-4.63
			c0.18,0.26,0.28,0.59,0.33,0.9c0.04,0.15,0.07,0.31,0.07,0.5c0,1.49-1.23,2.72-2.74,2.72c-1.51,0-2.74-1.23-2.74-2.72
			c0-0.18,0.02-0.35,0.07-0.53c0.04-0.31,0.18-0.61,0.33-0.88h-5.31c0.18,0.26,0.29,0.59,0.33,0.9c0.04,0.15,0.07,0.31,0.07,0.5
			c0,1.49-1.23,2.72-2.74,2.72c-1.51,0-2.74-1.23-2.74-2.72c0-0.18,0.02-0.35,0.07-0.53c0.04-0.31,0.18-0.61,0.33-0.88h-4.52v-0.55
			h5.7l-0.42,0.46c-0.31,0.31-0.48,0.68-0.55,1.07c-0.04,0.15-0.07,0.28-0.07,0.42c0,1.21,0.99,2.17,2.19,2.17
			c1.21,0,2.19-0.96,2.19-2.17c0-0.13-0.02-0.26-0.04-0.39c-0.07-0.42-0.26-0.79-0.55-1.1l-0.44-0.46h7.7l-0.44,0.46
			c-0.29,0.31-0.48,0.68-0.55,1.07c-0.04,0.15-0.07,0.28-0.07,0.42c0,1.21,0.99,2.17,2.19,2.17s2.19-0.96,2.19-2.17
			c0-0.13-0.02-0.26-0.04-0.39c-0.07-0.42-0.26-0.79-0.55-1.1l-0.44-0.46h7l-0.44,0.46c-0.29,0.31-0.48,0.68-0.55,1.07
			c-0.02,0.15-0.04,0.28-0.04,0.42c0,1.21,0.99,2.17,2.19,2.17c1.21,0,2.19-0.96,2.19-2.17c0-0.13-0.02-0.26-0.07-0.39
			c-0.07-0.42-0.26-0.79-0.55-1.1l-0.44-0.46h7.21l-0.44,0.46c-0.29,0.31-0.48,0.68-0.55,1.07c-0.02,0.15-0.04,0.28-0.04,0.42
			c0,1.21,0.99,2.17,2.19,2.17c1.21,0,2.17-0.96,2.17-2.17c0-0.13,0-0.26-0.04-0.39c-0.07-0.42-0.26-0.79-0.55-1.1L94,79.89h2.48
			v0.64h2.96v0.55H96.83z"/>
		<path class="st0" d="M96.56,81.84c0,2.04-1.67,3.71-3.71,3.71c-2.06,0-3.73-1.67-3.73-3.71c0-0.15,0-0.29,0.02-0.42l0.02-0.31H87
			l0.04,0.31v0.42c0,2.04-1.67,3.71-3.71,3.71c-2.06,0-3.73-1.67-3.73-3.71c0-0.15,0-0.29,0.02-0.42l0.04-0.31h-2l0.04,0.31
			c0.02,0.13,0.02,0.26,0.02,0.42c0,2.04-1.67,3.71-3.73,3.71c-2.04,0-3.71-1.67-3.71-3.71v-0.42l0.04-0.31h-2.68l0.04,0.31
			c0.02,0.13,0.02,0.26,0.02,0.42c0,2.04-1.67,3.71-3.73,3.71c-2.04,0-3.71-1.67-3.71-3.71v-0.42l0.04-0.31H30.88v-0.68h30.79
			c-0.15,0.26-0.29,0.57-0.33,0.88c-0.04,0.18-0.07,0.35-0.07,0.53c0,1.49,1.23,2.72,2.74,2.72c1.51,0,2.74-1.23,2.74-2.72
			c0-0.2-0.02-0.35-0.07-0.5c-0.04-0.31-0.15-0.64-0.33-0.9h5.31c-0.15,0.26-0.29,0.57-0.33,0.88c-0.04,0.18-0.07,0.35-0.07,0.53
			c0,1.49,1.23,2.72,2.74,2.72c1.51,0,2.74-1.23,2.74-2.72c0-0.2-0.02-0.35-0.07-0.5c-0.04-0.31-0.15-0.64-0.33-0.9h4.63
			c-0.18,0.26-0.29,0.57-0.33,0.88c-0.04,0.18-0.07,0.33-0.07,0.53c0,1.49,1.23,2.72,2.74,2.72c1.51,0,2.74-1.23,2.74-2.72
			c0-0.18-0.02-0.35-0.07-0.5c-0.04-0.31-0.18-0.64-0.33-0.9h4.82c-0.18,0.26-0.29,0.57-0.33,0.88c-0.04,0.18-0.07,0.35-0.07,0.53
			c0,1.49,1.23,2.72,2.74,2.72c1.51,0,2.72-1.23,2.72-2.72c0-0.18,0-0.35-0.04-0.5c-0.07-0.31-0.18-0.64-0.33-0.9h1.1
			c0.11,0.31,0.2,0.61,0.24,0.99C96.56,81.56,96.56,81.69,96.56,81.84z"/>
	</g>
	<g>
		<rect x="96.47" y="79.89" class="st0" width="3.27" height="0.64"/>
	</g>
	<g>
		<polygon class="st0" points="100.07,64.01 100.07,81.71 96.83,81.71 96.83,81.07 99.43,81.07 99.43,64.01 		"/>
	</g>
	<g>
		<path class="st0" d="M136.41,62.5l0.44,0.48c0.29,0.29,0.48,0.68,0.55,1.1c0.04,0.13,0.04,0.24,0.04,0.39
			c0,1.21-0.97,2.17-2.17,2.17c-1.21,0-2.19-0.97-2.19-2.17c0-0.13,0.02-0.26,0.04-0.42c0.07-0.39,0.26-0.77,0.55-1.07l0.44-0.48
			h-7.21l0.44,0.48c0.28,0.31,0.48,0.68,0.55,1.1c0.04,0.13,0.04,0.26,0.04,0.39c0,1.21-0.97,2.17-2.17,2.17
			c-1.21,0-2.19-0.97-2.19-2.17c0-0.13,0.02-0.26,0.04-0.42c0.07-0.39,0.26-0.79,0.55-1.07l0.44-0.48h-7l0.44,0.48
			c0.28,0.29,0.48,0.68,0.55,1.1c0.02,0.13,0.04,0.24,0.04,0.39c0,1.21-0.99,2.17-2.19,2.17c-1.21,0-2.19-0.97-2.19-2.17
			c0-0.13,0.02-0.26,0.07-0.42c0.07-0.39,0.24-0.77,0.53-1.07l0.44-0.48h-7.68l0.44,0.48c0.29,0.31,0.48,0.68,0.55,1.1
			c0.02,0.13,0.04,0.26,0.04,0.39c0,1.21-0.99,2.17-2.19,2.17c-1.21,0-2.19-0.97-2.19-2.17c0-0.15,0.02-0.26,0.07-0.42
			c0.07-0.39,0.24-0.79,0.53-1.07l0.44-0.48h-6.34v1.8h3.22v0.18c0,2.35,1.93,4.25,4.28,4.25s4.28-1.91,4.28-4.25V64.3h1.47v0.18
			c0,2.35,1.91,4.25,4.25,4.25c2.35,0,4.28-1.91,4.28-4.25V64.3h0.77v0.18c0,2.35,1.91,4.25,4.28,4.25c2.35,0,4.25-1.91,4.25-4.25
			V64.3h0.99v0.18c0,2.35,1.91,4.25,4.28,4.25c2.35,0,4.25-1.91,4.25-4.25V64.3h2.37v-1.8H136.41z M138.93,63.75l0.02,0.31
			c0.02,0.13,0.02,0.26,0.02,0.42c0,2.04-1.67,3.71-3.71,3.71c-2.06,0-3.73-1.67-3.73-3.71c0-0.15,0-0.29,0.02-0.42l0.04-0.31h-2.19
			l0.02,0.31c0.02,0.13,0.02,0.26,0.02,0.42c0,2.04-1.67,3.71-3.71,3.71c-2.06,0-3.73-1.67-3.73-3.71c0-0.15,0-0.29,0.02-0.42
			l0.04-0.31h-2l0.04,0.31c0.02,0.13,0.02,0.26,0.02,0.42c0,2.04-1.67,3.71-3.73,3.71c-2.04,0-3.71-1.67-3.71-3.71v-0.42l0.04-0.31
			h-2.68l0.04,0.31c0.02,0.13,0.02,0.26,0.02,0.42c0,2.04-1.67,3.71-3.73,3.71c-2.04,0-3.73-1.67-3.73-3.71c0-0.15,0-0.29,0.02-0.42
			l0.04-0.31h-3.29v-0.7h4.6c-0.15,0.29-0.28,0.59-0.33,0.9c-0.04,0.15-0.07,0.33-0.07,0.53c0,1.49,1.23,2.72,2.74,2.72
			c1.51,0,2.74-1.23,2.74-2.72c0-0.18-0.02-0.35-0.07-0.5c-0.04-0.31-0.15-0.64-0.33-0.92h5.31c-0.15,0.29-0.29,0.59-0.33,0.9
			c-0.04,0.18-0.07,0.35-0.07,0.53c0,1.49,1.23,2.72,2.74,2.72c1.51,0,2.74-1.23,2.74-2.72c0-0.2-0.02-0.37-0.07-0.5
			c-0.04-0.33-0.15-0.64-0.33-0.92h4.63c-0.18,0.29-0.29,0.59-0.33,0.9c-0.04,0.18-0.07,0.35-0.07,0.53c0,1.49,1.23,2.72,2.74,2.72
			c1.51,0,2.72-1.23,2.72-2.72c0-0.18-0.02-0.35-0.04-0.5c-0.07-0.33-0.18-0.64-0.33-0.92h4.82c-0.18,0.29-0.29,0.59-0.33,0.9
			c-0.04,0.18-0.07,0.35-0.07,0.53c0,1.49,1.23,2.72,2.74,2.72c1.49,0,2.72-1.23,2.72-2.72c0-0.2-0.02-0.37-0.04-0.5
			c-0.07-0.33-0.18-0.64-0.35-0.92h3.75v0.7H138.93z"/>
		<path class="st0" d="M141.34,63.75h-2.41l0.02,0.31c0.02,0.13,0.02,0.26,0.02,0.42c0,2.04-1.67,3.71-3.71,3.71
			c-2.06,0-3.73-1.67-3.73-3.71c0-0.15,0-0.29,0.02-0.42l0.04-0.31h-2.19l0.02,0.31c0.02,0.13,0.02,0.26,0.02,0.42
			c0,2.04-1.67,3.71-3.71,3.71c-2.06,0-3.73-1.67-3.73-3.71c0-0.15,0-0.29,0.02-0.42l0.04-0.31h-2l0.04,0.31
			c0.02,0.13,0.02,0.26,0.02,0.42c0,2.04-1.67,3.71-3.73,3.71c-2.04,0-3.71-1.67-3.71-3.71v-0.42l0.04-0.31h-2.68l0.04,0.31
			c0.02,0.13,0.02,0.26,0.02,0.42c0,2.04-1.67,3.71-3.73,3.71c-2.04,0-3.73-1.67-3.73-3.71c0-0.15,0-0.29,0.02-0.42l0.04-0.31h-3.29
			v-0.7h4.6c-0.15,0.29-0.28,0.59-0.33,0.9c-0.04,0.15-0.07,0.33-0.07,0.53c0,1.49,1.23,2.72,2.74,2.72c1.51,0,2.74-1.23,2.74-2.72
			c0-0.18-0.02-0.35-0.07-0.5c-0.04-0.31-0.15-0.64-0.33-0.92h5.31c-0.15,0.29-0.29,0.59-0.33,0.9c-0.04,0.18-0.07,0.35-0.07,0.53
			c0,1.49,1.23,2.72,2.74,2.72c1.51,0,2.74-1.23,2.74-2.72c0-0.2-0.02-0.37-0.07-0.5c-0.04-0.33-0.15-0.64-0.33-0.92h4.63
			c-0.18,0.29-0.29,0.59-0.33,0.9c-0.04,0.18-0.07,0.35-0.07,0.53c0,1.49,1.23,2.72,2.74,2.72c1.51,0,2.72-1.23,2.72-2.72
			c0-0.18-0.02-0.35-0.04-0.5c-0.07-0.33-0.18-0.64-0.33-0.92h4.82c-0.18,0.29-0.29,0.59-0.33,0.9c-0.04,0.18-0.07,0.35-0.07,0.53
			c0,1.49,1.23,2.72,2.74,2.72c1.49,0,2.72-1.23,2.72-2.72c0-0.2-0.02-0.37-0.04-0.5c-0.07-0.33-0.18-0.64-0.35-0.92h3.75V63.75z"/>
	</g>
	<g>
		<polygon class="st0" points="26.41,98.46 26.41,98.84 142.29,98.84 142.29,99.39 25.86,99.39 25.86,97.92 142.29,97.92 
			142.29,98.46 		"/>
	</g>
	<g>
		<path class="st0" d="M56.87,81.14H31.98l-0.26,0.29v16.75l0.26,0.29h24.89l0.29-0.29V81.43L56.87,81.14z M56.61,97.89H32.26V81.71
			h24.34V97.89z"/>
	</g>
	<g>
		<path class="st0" d="M44.71,78.42c-1.4,0-2.55-1.14-2.55-2.55c0-1.4,1.14-2.55,2.55-2.55c1.4,0,2.55,1.15,2.55,2.55
			C47.26,77.28,46.12,78.42,44.71,78.42z M44.71,73.87c-1.1,0-2,0.9-2,2c0,1.1,0.9,2,2,2c1.1,0,2-0.9,2-2
			C46.71,74.77,45.81,73.87,44.71,73.87z"/>
	</g>
	<g>
		<path class="st0" d="M44.71,76.94c-0.59,0-1.07-0.48-1.07-1.07c0-0.59,0.48-1.07,1.07-1.07c0.59,0,1.07,0.48,1.07,1.07
			C45.78,76.46,45.3,76.94,44.71,76.94z M44.71,75.35c-0.29,0-0.52,0.23-0.52,0.52c0,0.29,0.23,0.52,0.52,0.52
			c0.29,0,0.52-0.23,0.52-0.52C45.23,75.58,45,75.35,44.71,75.35z"/>
	</g>
	<g>
		<polygon class="st0" points="83.62,148.25 76.48,148.25 76.48,147.7 83.06,147.7 83.06,99.12 83.62,99.12 		"/>
	</g>
	<g>
		<polygon class="st0" points="60.03,147.7 60.03,148.25 52.04,148.25 52.04,99.12 52.61,99.12 52.61,147.7 		"/>
	</g>
	<g>
		<path class="st0" d="M74.83,111.49c-0.07-0.07-0.15-0.15-0.22-0.24c-0.11-0.11-0.22-0.24-0.33-0.35
			c-0.04-0.04-0.09-0.09-0.15-0.13c-0.09-0.11-0.18-0.18-0.29-0.26c-1.45-1.27-3.25-2-5.18-2.08c-0.09-0.02-0.18-0.02-0.26-0.02
			h-0.15c-1.95,0-3.75,0.68-5.18,1.8c-0.11,0.07-0.2,0.13-0.29,0.22c-0.31,0.24-0.59,0.5-0.86,0.81c-0.09,0.09-0.15,0.18-0.24,0.26
			c-1.21,1.47-1.95,3.36-1.95,5.42v31.07l0.29,0.26h16.45l0.28-0.26v-31.21C76.74,114.82,76.06,112.98,74.83,111.49z M76.21,147.7
			h-15.9v-30.79c0-1.73,0.57-3.36,1.53-4.65c0.04-0.09,0.11-0.18,0.15-0.24c0.94-1.21,2.21-2.13,3.68-2.63
			c0.09-0.02,0.2-0.07,0.29-0.09c0.72-0.22,1.49-0.33,2.28-0.33c0.72,0,1.45,0.09,2.13,0.29c0.09,0.02,0.2,0.04,0.28,0.07
			c1.21,0.39,2.3,1.05,3.22,1.97c0.11,0.11,0.22,0.24,0.33,0.35c0.07,0.07,0.13,0.13,0.18,0.22c1.14,1.36,1.8,3.09,1.82,4.91V147.7z
			"/>
		<path class="st0" d="M76.21,116.78v30.92H74.9v-30.92c-0.02-1.51-0.55-2.87-1.45-3.97c-0.04-0.07-0.09-0.15-0.18-0.22
			c-0.68-0.81-1.58-1.47-2.61-1.86c-0.09-0.04-0.18-0.07-0.28-0.09c-0.68-0.24-1.38-0.37-2.13-0.37c-0.81,0-1.58,0.15-2.28,0.42
			c-0.11,0.02-0.2,0.07-0.29,0.11c-1.12,0.46-2.06,1.23-2.74,2.17c-0.07,0.07-0.13,0.13-0.18,0.22c-0.72,1.05-1.14,2.35-1.14,3.73
			v30.79h-1.32v-30.79c0-1.73,0.57-3.36,1.53-4.65c0.04-0.09,0.11-0.18,0.15-0.24c0.94-1.21,2.21-2.13,3.68-2.63
			c0.09-0.02,0.2-0.07,0.29-0.09c0.72-0.22,1.49-0.33,2.28-0.33c0.72,0,1.45,0.09,2.13,0.29c0.09,0.02,0.2,0.04,0.28,0.07
			c1.21,0.39,2.3,1.05,3.22,1.97c0.11,0.11,0.22,0.24,0.33,0.35c0.07,0.07,0.13,0.13,0.18,0.22
			C75.53,113.22,76.19,114.96,76.21,116.78z"/>
	</g>
	<g>
		<path class="st0" d="M73.45,112.81c-0.04-0.07-0.09-0.15-0.18-0.22c-0.68-0.81-1.58-1.47-2.61-1.86
			c-0.09-0.04-0.18-0.07-0.28-0.09c-0.68-0.24-1.38-0.37-2.13-0.37c-0.81,0-1.58,0.15-2.28,0.42c-0.11,0.02-0.2,0.07-0.29,0.11
			c-1.12,0.46-2.06,1.23-2.74,2.17c-0.07,0.07-0.13,0.13-0.18,0.22c-0.72,1.05-1.14,2.35-1.14,3.73v31.07l0.26,0.26h12.72l0.29-0.26
			v-31.21C74.87,115.26,74.35,113.9,73.45,112.81z M62.18,147.7v-30.79c0-3.36,2.72-6.07,6.07-6.07c3.36,0,6.1,2.72,6.1,6.07v30.79
			H62.18z"/>
	</g>
	<g>
		<rect x="52.33" y="105.45" class="st0" width="31.01" height="0.28"/>
	</g>
	<g>
		<rect x="52.33" y="111.22" class="st0" width="9.8" height="0.28"/>
	</g>
	<g>
		<rect x="74.62" y="111.22" class="st0" width="8.72" height="0.28"/>
	</g>
	<g>
		<rect x="52.33" y="117.17" class="st0" width="7.7" height="0.28"/>
	</g>
	<g>
		<rect x="76.48" y="116.77" class="st0" width="6.86" height="0.28"/>
	</g>
	<g>
		<rect x="52.33" y="123.82" class="st0" width="7.7" height="0.28"/>
	</g>
	<g>
		<rect x="76.48" y="123.82" class="st0" width="6.86" height="0.28"/>
	</g>
	<g>
		<rect x="52.33" y="133.38" class="st0" width="7.7" height="0.28"/>
	</g>
	<g>
		<rect x="76.48" y="133.38" class="st0" width="6.86" height="0.28"/>
	</g>
	<g>
		<rect x="52.33" y="141.02" class="st0" width="7.7" height="0.28"/>
	</g>
	<g>
		<rect x="76.48" y="141.02" class="st0" width="6.86" height="0.28"/>
	</g>
	<g>
		<rect x="55.05" y="99.12" class="st0" width="0.28" height="6.47"/>
	</g>
	<g>
		<rect x="57.47" y="105.59" class="st0" width="0.28" height="5.86"/>
	</g>
	<g>
		<rect x="60.85" y="99.12" class="st0" width="0.28" height="6.47"/>
	</g>
	<g>
		<rect x="65.7" y="99.12" class="st0" width="0.28" height="6.47"/>
	</g>
	<g>
		<rect x="70.54" y="99.12" class="st0" width="0.28" height="6.47"/>
	</g>
	<g>
		<rect x="75.38" y="99.12" class="st0" width="0.28" height="6.47"/>
	</g>
	<g>
		<rect x="80.35" y="99.12" class="st0" width="0.28" height="6.47"/>
	</g>
	<g>
		<rect x="62.8" y="105.59" class="st0" width="0.28" height="4.96"/>
	</g>
	<g>
		<rect x="68.4" y="105.59" class="st0" width="0.28" height="3.1"/>
	</g>
	<g>
		<rect x="73.84" y="105.59" class="st0" width="0.28" height="5.5"/>
	</g>
	<g>
		<rect x="78.58" y="105.59" class="st0" width="0.28" height="5.77"/>
	</g>
	<g>
		<rect x="55.05" y="111.36" class="st0" width="0.28" height="5.95"/>
	</g>
	<g>
		<rect x="80.84" y="111.36" class="st0" width="0.28" height="5.55"/>
	</g>
	<g>
		<path class="st0" d="M65.97,108.99v0.31c-0.09,0.02-0.2,0.07-0.29,0.09v-0.39H65.97z"/>
		<path class="st0" d="M65.68,110.79c0.09-0.04,0.18-0.09,0.29-0.11v0.35h-0.29V110.79z"/>
	</g>
	<g>
		<path class="st0" d="M70.66,109.03v0.29c-0.09-0.02-0.2-0.04-0.28-0.07v-0.22H70.66z"/>
		<path class="st0" d="M70.38,110.64c0.11,0.02,0.2,0.04,0.28,0.09v0.24h-0.28V110.64z"/>
	</g>
	<g>
		<path class="st0" d="M61.87,111.89l0.13,0.13c-0.04,0.07-0.11,0.15-0.15,0.24l-0.18-0.18L61.87,111.89z"/>
		<path class="st0" d="M63.14,113.16l-0.2,0.2l-0.18-0.18c0.04-0.09,0.11-0.15,0.18-0.22L63.14,113.16z"/>
	</g>
	<g>
		<path class="st0" d="M73.27,112.59c0.09,0.07,0.13,0.15,0.18,0.22l-0.18,0.18l-0.2-0.2L73.27,112.59z"/>
		<path class="st0" d="M74.61,111.64l-0.22,0.22c-0.04-0.09-0.11-0.15-0.18-0.22l0.2-0.2L74.61,111.64z"/>
	</g>
	<g>
		<rect x="60.03" y="117.17" class="st0" width="0.28" height="0.29"/>
		<rect x="61.63" y="117.17" class="st0" width="0.26" height="0.29"/>
	</g>
	<g>
		<rect x="74.61" y="116.78" class="st0" width="0.29" height="0.26"/>
		<rect x="76.21" y="116.78" class="st0" width="0.26" height="0.26"/>
	</g>
	<g>
		<rect x="60.03" y="123.82" class="st0" width="0.28" height="0.29"/>
		<rect x="61.63" y="123.82" class="st0" width="0.26" height="0.29"/>
	</g>
	<g>
		<rect x="74.61" y="123.82" class="st0" width="0.29" height="0.29"/>
		<rect x="76.21" y="123.82" class="st0" width="0.26" height="0.29"/>
	</g>
	<g>
		<rect x="48.32" y="99.12" class="st0" width="1.34" height="48.86"/>
	</g>
	<g>
		<rect x="43.78" y="99.12" class="st0" width="1.38" height="48.86"/>
	</g>
	<g>
		<rect x="40.2" y="99.12" class="st0" width="1.38" height="48.86"/>
	</g>
	<g>
		<rect x="36.08" y="99.12" class="st0" width="1.05" height="48.86"/>
	</g>
	<g>
		<rect x="31.98" y="99.12" class="st0" width="1.05" height="48.86"/>
	</g>
	<g>
		<rect x="27.79" y="99.12" class="st0" width="1.05" height="48.86"/>
	</g>
	<g>
		<polygon class="st0" points="31.98,99.39 31.98,102.59 28.84,99.47 28.84,99.39 		"/>
		<polygon class="st0" points="32.44,103.05 32.24,103.25 31.98,102.98 28.84,99.87 28.1,99.12 28.29,98.93 28.84,99.47 
			31.98,102.59 		"/>
	</g>
	<g>
		<polygon class="st0" points="36.08,99.39 36.08,102.39 33.08,99.39 		"/>
		<polygon class="st0" points="36.74,103.05 36.54,103.25 36.08,102.78 33.03,99.74 32.68,99.39 32.42,99.12 32.62,98.93 
			32.81,99.12 33.03,99.34 33.08,99.39 		"/>
	</g>
	<g>
		<polygon class="st0" points="40.2,99.39 40.2,102.41 37.15,99.39 		"/>
		<polygon class="st0" points="40.84,103.05 40.64,103.25 40.2,102.81 37.13,99.76 36.76,99.39 36.5,99.12 36.69,98.93 36.89,99.12 
			37.13,99.36 37.15,99.39 40.2,102.41 		"/>
	</g>
	<g>
		<polygon class="st0" points="43.78,99.39 43.78,101.84 41.58,99.67 41.58,99.39 		"/>
		<polygon class="st0" points="44.98,103.05 44.79,103.25 43.78,102.24 41.58,100.07 40.64,99.12 40.84,98.93 41.04,99.12 
			41.58,99.67 43.78,101.84 		"/>
	</g>
	<g>
		<polygon class="st0" points="48.32,99.39 48.32,102.54 45.16,99.41 45.16,99.39 		"/>
		<polygon class="st0" points="48.82,103.05 48.62,103.25 48.32,102.94 45.16,99.8 44.48,99.12 44.68,98.93 44.87,99.12 
			45.14,99.39 45.16,99.39 45.16,99.41 48.32,102.54 		"/>
	</g>
	<g>
		<polygon class="st0" points="52.04,99.39 52.04,102.54 49.65,100.15 49.65,99.39 		"/>
		
			<rect x="50.25" y="98.17" transform="matrix(0.7061 -0.7081 0.7081 0.7061 -56.768 65.383)" class="st0" width="0.28" height="5.83"/>
	</g>
	<g>
		<rect x="27.79" y="146.35" class="st0" width="24.54" height="1.91"/>
	</g>
	<g>
		<path class="st0" d="M34.13,84.01v2.74h2.74v-2.74H34.13z M36.32,86.21h-1.64v-1.64h1.64V86.21z"/>
		<rect x="34.68" y="84.56" class="st0" width="1.64" height="1.64"/>
	</g>
	<g>
		<path class="st0" d="M34.13,88.57v2.74h2.74v-2.74H34.13z M36.32,90.77h-1.64v-1.64h1.64V90.77z"/>
		<rect x="34.68" y="89.12" class="st0" width="1.64" height="1.64"/>
	</g>
	<g>
		<path class="st0" d="M34.13,93.11v2.74h2.74v-2.74H34.13z M36.32,95.31h-1.64v-1.64h1.64V95.31z"/>
		<rect x="34.68" y="93.66" class="st0" width="1.64" height="1.64"/>
	</g>
	<g>
		<path class="st0" d="M38.05,84.01v12.65h12.65V84.01H38.05z M50.16,96.12H38.6V84.56h11.56V96.12z"/>
	</g>
	<g>
		<path class="st0" d="M37.62,83.57v13.55h13.55V83.57H37.62z M50.88,96.84H37.9V83.86h12.98V96.84z"/>
		<rect x="38.6" y="84.56" class="st0" width="11.56" height="11.56"/>
	</g>
	<g>
		<rect x="31.99" y="83.04" class="st0" width="4.91" height="0.28"/>
	</g>
	<g>
		<rect x="36.76" y="81.43" class="st0" width="0.28" height="16.75"/>
	</g>
	<g>
		<rect x="31.99" y="86.35" class="st0" width="2.42" height="0.28"/>
	</g>
	<g>
		<rect x="31.99" y="88.7" class="st0" width="2.42" height="0.28"/>
	</g>
	<g>
		<rect x="31.99" y="90.89" class="st0" width="2.42" height="0.28"/>
	</g>
	<g>
		<rect x="31.99" y="93.25" class="st0" width="2.42" height="0.28"/>
	</g>
	<g>
		<path class="st0" d="M51.98,84.01v2.74h2.74v-2.74H51.98z M54.17,86.21h-1.64v-1.64h1.64V86.21z"/>
		<rect x="52.53" y="84.56" class="st0" width="1.64" height="1.64"/>
	</g>
	<g>
		<path class="st0" d="M51.98,88.57v2.74h2.74v-2.74H51.98z M54.17,90.77h-1.64v-1.64h1.64V90.77z"/>
		<rect x="52.53" y="89.12" class="st0" width="1.64" height="1.64"/>
	</g>
	<g>
		<path class="st0" d="M51.98,93.11v2.74h2.74v-2.74H51.98z M54.17,95.31h-1.64v-1.64h1.64V95.31z"/>
		<rect x="52.53" y="93.66" class="st0" width="1.64" height="1.64"/>
	</g>
	<g>
		<rect x="51.97" y="83.04" class="st0" width="4.91" height="0.28"/>
	</g>
	<g>
		<rect x="51.83" y="81.43" class="st0" width="0.28" height="16.75"/>
	</g>
	<g>
		<rect x="54.45" y="86.35" class="st0" width="2.42" height="0.28"/>
	</g>
	<g>
		<rect x="54.45" y="88.7" class="st0" width="2.42" height="0.28"/>
	</g>
	<g>
		<rect x="54.45" y="90.89" class="st0" width="2.42" height="0.28"/>
	</g>
	<g>
		<rect x="54.45" y="93.25" class="st0" width="2.42" height="0.28"/>
	</g>
	<g>
		<rect x="31.99" y="96.84" class="st0" width="4.91" height="0.28"/>
	</g>
	<g>
		<rect x="36.9" y="82.46" class="st0" width="15.07" height="0.28"/>
	</g>
	<g>
		<path class="st0" d="M63.76,87.7v9.56h28.93V87.7H63.76z M92.13,96.71H64.3v-8.47h27.83V96.71z"/>
		<rect x="64.3" y="88.25" class="st0" width="27.83" height="8.47"/>
	</g>
	<g>
		<rect x="45.84" y="69.89" class="st0" width="0.26" height="0.55"/>
	</g>
	<g>
		<path class="st0" d="M204.72,69.89v0.26c0,0.24-0.04,0.48-0.09,0.72c-0.18,0.7-0.55,1.34-1.05,1.84
			c-0.66,0.64-1.58,1.05-2.59,1.05c-2,0-3.66-1.62-3.71-3.62l-0.02-0.26h-2.54v0.26c-0.07,2-1.73,3.62-3.73,3.62
			c-2,0-3.66-1.62-3.71-3.62l-0.02-0.26h-3.6v10.55h24.89V69.89H204.72z M208.01,79.89h-23.79v-9.45h2.52
			c0.2,2.17,2.06,3.88,4.25,3.88c2.21,0,4.06-1.71,4.25-3.88h1.49c0.2,2.17,2.06,3.88,4.25,3.88c2.21,0,4.06-1.71,4.25-3.88h2.76
			V79.89z"/>
	</g>
	<g>
		<path class="st0" d="M208.84,68.18h-5.99l-0.2,0.46c0.35,0.39,0.53,0.9,0.55,1.38l-0.04,0.13c-0.02,1.16-1.01,2.11-2.17,2.11
			c-1.16,0-2.13-0.94-2.17-2.11v-0.11c0-0.5,0.18-1.01,0.53-1.4l-0.22-0.46h-6.27l-0.2,0.46c0.35,0.39,0.53,0.9,0.55,1.38
			l-0.04,0.13c-0.02,1.16-1.01,2.11-2.17,2.11s-2.13-0.94-2.17-2.11v-0.11c0-0.5,0.18-1.01,0.53-1.4l-0.22-0.46h-5.7l-0.29,0.29
			v1.69l0.29,0.29h3.31c0.2,2.17,2.06,3.88,4.25,3.88c2.21,0,4.06-1.71,4.25-3.88h1.49c0.2,2.17,2.06,3.88,4.25,3.88
			c2.21,0,4.06-1.71,4.25-3.88h3.6l0.26-0.29v-1.69L208.84,68.18z M208.56,69.87h-3.57l-0.02,0.02l-0.24,0.26
			c0,0.24-0.04,0.48-0.09,0.72c-0.18,0.7-0.55,1.34-1.05,1.84c-0.66,0.64-1.58,1.05-2.59,1.05c-2,0-3.66-1.62-3.71-3.62L197,69.87
			h-2.02v0.02h-0.02l-0.24,0.26c-0.07,2-1.73,3.62-3.73,3.62c-2,0-3.66-1.62-3.71-3.62L187,69.87h-3.29v-1.14h4.89
			c-0.22,0.39-0.35,0.86-0.35,1.32c0,0.04,0,0.09,0.02,0.15c0.07,1.45,1.29,2.61,2.72,2.61c1.45,0,2.65-1.16,2.72-2.59
			c0.02-0.09,0.02-0.13,0.02-0.18c0-0.46-0.11-0.92-0.33-1.32h5.2c-0.22,0.39-0.33,0.86-0.33,1.32v0.15
			c0.07,1.45,1.29,2.61,2.72,2.61c1.45,0,2.65-1.16,2.72-2.59c0.02-0.09,0.02-0.13,0.02-0.18c0-0.46-0.11-0.92-0.33-1.32h5.15V69.87
			z"/>
		<path class="st0" d="M208.56,68.73v1.14h-3.57l-0.02,0.02h-0.24v0.26c0,0.24-0.04,0.48-0.09,0.72c-0.18,0.7-0.55,1.34-1.05,1.84
			c-0.66,0.64-1.58,1.05-2.59,1.05c-2,0-3.66-1.62-3.71-3.62l-0.02-0.26h-0.24L197,69.87h-2.02v0.02h-0.26v0.26
			c-0.07,2-1.73,3.62-3.73,3.62c-2,0-3.66-1.62-3.71-3.62l-0.02-0.26h-0.24L187,69.87h-3.29v-1.14h4.89
			c-0.22,0.39-0.35,0.86-0.35,1.32c0,0.04,0,0.09,0.02,0.15c0.07,1.45,1.29,2.61,2.72,2.61c1.45,0,2.65-1.16,2.72-2.59
			c0.02-0.09,0.02-0.13,0.02-0.18c0-0.46-0.11-0.92-0.33-1.32h5.2c-0.22,0.39-0.33,0.86-0.33,1.32v0.15
			c0.07,1.45,1.29,2.61,2.72,2.61c1.45,0,2.65-1.16,2.72-2.59c0.02-0.09,0.02-0.13,0.02-0.18c0-0.46-0.11-0.92-0.33-1.32H208.56z"/>
	</g>
	<g>
		<path class="st0" d="M177.97,79.89l0.42,0.46c0.31,0.31,0.48,0.68,0.55,1.1c0.04,0.13,0.07,0.26,0.07,0.39
			c0,1.21-0.99,2.17-2.19,2.17c-1.21,0-2.19-0.96-2.19-2.17c0-0.13,0.02-0.26,0.07-0.42c0.04-0.39,0.24-0.77,0.53-1.07l0.44-0.46
			h-7.7l0.44,0.46c0.29,0.31,0.48,0.68,0.55,1.1c0.04,0.13,0.07,0.26,0.07,0.39c0,1.21-0.99,2.17-2.19,2.17s-2.19-0.96-2.19-2.17
			c0-0.13,0.02-0.26,0.04-0.42c0.07-0.39,0.26-0.77,0.55-1.07l0.44-0.46h-7l0.44,0.46c0.29,0.31,0.48,0.68,0.55,1.1
			c0.02,0.13,0.04,0.26,0.04,0.39c0,1.21-0.99,2.17-2.19,2.17c-1.21,0-2.19-0.96-2.19-2.17c0-0.13,0.02-0.26,0.07-0.42
			c0.07-0.39,0.26-0.77,0.55-1.07l0.44-0.46h-7.21l0.44,0.46c0.29,0.31,0.48,0.68,0.55,1.1c0.02,0.13,0.04,0.26,0.04,0.39
			c0,1.21-0.99,2.17-2.19,2.17c-1.21,0-2.17-0.96-2.17-2.17c0-0.13,0-0.26,0.04-0.42c0.07-0.39,0.26-0.77,0.55-1.07l0.44-0.46h-2.65
			l-0.07,0.15c-0.07,0.13-0.13,0.26-0.15,0.42c-0.09,0.2-0.15,0.39-0.15,0.61c-0.04,0.09-0.07,0.2-0.07,0.29
			c-0.02,0.11-0.02,0.22-0.02,0.35v0.13c0,2.35,1.91,4.25,4.25,4.25c2.37,0,4.28-1.91,4.28-4.25v-0.18h0.99v0.18
			c0,2.35,1.91,4.25,4.25,4.25c2.37,0,4.28-1.91,4.28-4.25v-0.18h0.77v0.18c0,2.35,1.93,4.25,4.28,4.25c2.35,0,4.25-1.91,4.25-4.25
			v-0.18h1.47v0.18c0,2.35,1.93,4.25,4.28,4.25c2.35,0,4.25-1.91,4.25-4.25v-0.18h29.43v-1.78H177.97z M209.94,81.12h-29.47
			l0.04,0.31v0.42c0,2.04-1.67,3.71-3.71,3.71c-2.06,0-3.73-1.67-3.73-3.71c0-0.15,0-0.29,0.02-0.42l0.04-0.31h-2.68l0.04,0.31v0.42
			c0,2.04-1.67,3.71-3.71,3.71c-2.06,0-3.73-1.67-3.73-3.71c0-0.15,0-0.29,0.02-0.42l0.04-0.31h-2l0.04,0.31
			c0.02,0.13,0.02,0.26,0.02,0.42c0,2.04-1.67,3.71-3.73,3.71c-2.04,0-3.71-1.67-3.71-3.71v-0.42l0.04-0.31h-2.17l0.02,0.31
			c0.02,0.13,0.02,0.26,0.02,0.42c0,2.04-1.67,3.71-3.73,3.71c-2.04,0-3.71-1.67-3.71-3.71v-0.42c0.07-0.35,0.15-0.68,0.26-0.99
			h1.12c-0.18,0.26-0.29,0.57-0.35,0.88c-0.04,0.18-0.04,0.35-0.04,0.53c0,1.49,1.21,2.72,2.72,2.72c1.51,0,2.74-1.23,2.74-2.72
			c0-0.18-0.02-0.35-0.04-0.5c-0.07-0.31-0.18-0.64-0.35-0.9h4.82c-0.15,0.26-0.28,0.57-0.33,0.88c-0.04,0.18-0.07,0.35-0.07,0.53
			c0,1.49,1.23,2.72,2.74,2.72c1.51,0,2.74-1.23,2.74-2.72c0-0.2-0.02-0.35-0.07-0.5c-0.04-0.31-0.15-0.64-0.33-0.9h4.63
			c-0.18,0.26-0.28,0.57-0.33,0.88c-0.04,0.18-0.07,0.33-0.07,0.53c0,1.49,1.23,2.72,2.74,2.72c1.51,0,2.74-1.23,2.74-2.72
			c0-0.18-0.02-0.35-0.07-0.5c-0.04-0.31-0.18-0.64-0.33-0.9h5.31c-0.18,0.26-0.29,0.57-0.33,0.88c-0.04,0.18-0.07,0.33-0.07,0.53
			c0,1.49,1.23,2.72,2.74,2.72c1.51,0,2.74-1.23,2.74-2.72c0-0.18-0.02-0.35-0.07-0.5c-0.04-0.31-0.18-0.64-0.33-0.9h30.79V81.12z"
			/>
		<path class="st0" d="M209.94,81.12h-29.47l0.04,0.31v0.42c0,2.04-1.67,3.71-3.71,3.71c-2.06,0-3.73-1.67-3.73-3.71
			c0-0.15,0-0.29,0.02-0.42l0.04-0.31h-2.68l0.04,0.31v0.42c0,2.04-1.67,3.71-3.71,3.71c-2.06,0-3.73-1.67-3.73-3.71
			c0-0.15,0-0.29,0.02-0.42l0.04-0.31h-2l0.04,0.31c0.02,0.13,0.02,0.26,0.02,0.42c0,2.04-1.67,3.71-3.73,3.71
			c-2.04,0-3.71-1.67-3.71-3.71v-0.42l0.04-0.31h-2.17l0.02,0.31c0.02,0.13,0.02,0.26,0.02,0.42c0,2.04-1.67,3.71-3.73,3.71
			c-2.04,0-3.71-1.67-3.71-3.71v-0.42c0.07-0.35,0.15-0.68,0.26-0.99h1.12c-0.18,0.26-0.29,0.57-0.35,0.88
			c-0.04,0.18-0.04,0.35-0.04,0.53c0,1.49,1.21,2.72,2.72,2.72c1.51,0,2.74-1.23,2.74-2.72c0-0.18-0.02-0.35-0.04-0.5
			c-0.07-0.31-0.18-0.64-0.35-0.9h4.82c-0.15,0.26-0.28,0.57-0.33,0.88c-0.04,0.18-0.07,0.35-0.07,0.53c0,1.49,1.23,2.72,2.74,2.72
			c1.51,0,2.74-1.23,2.74-2.72c0-0.2-0.02-0.35-0.07-0.5c-0.04-0.31-0.15-0.64-0.33-0.9h4.63c-0.18,0.26-0.28,0.57-0.33,0.88
			c-0.04,0.18-0.07,0.33-0.07,0.53c0,1.49,1.23,2.72,2.74,2.72c1.51,0,2.74-1.23,2.74-2.72c0-0.18-0.02-0.35-0.07-0.5
			c-0.04-0.31-0.18-0.64-0.33-0.9h5.31c-0.18,0.26-0.29,0.57-0.33,0.88c-0.04,0.18-0.07,0.33-0.07,0.53c0,1.49,1.23,2.72,2.74,2.72
			c1.51,0,2.74-1.23,2.74-2.72c0-0.18-0.02-0.35-0.07-0.5c-0.04-0.31-0.18-0.64-0.33-0.9h30.79V81.12z"/>
	</g>
	<g>
		<rect x="141.08" y="79.85" class="st0" width="3.27" height="0.61"/>
	</g>
	<g>
		<path class="st0" d="M143.95,80.46c-0.09,0.2-0.15,0.39-0.15,0.61h-2.41v-0.61H143.95z"/>
		<polygon class="st0" points="144,81.07 144,81.71 140.75,81.71 140.75,64.01 141.39,64.01 141.39,81.07 		"/>
	</g>
	<g>
		<polygon class="st0" points="214.96,97.92 214.96,99.39 141.61,99.39 141.61,98.84 214.41,98.84 214.41,98.46 141.61,98.46 
			141.61,97.92 		"/>
	</g>
	<g>
		<path class="st0" d="M208.84,81.14h-24.89l-0.29,0.29v16.75l0.29,0.29h24.89l0.26-0.29V81.43L208.84,81.14z M208.56,97.89h-24.34
			V81.71h24.34V97.89z"/>
	</g>
	<g>
		<path class="st0" d="M196.11,78.42c-1.4,0-2.55-1.14-2.55-2.55c0-1.4,1.14-2.55,2.55-2.55c1.4,0,2.55,1.15,2.55,2.55
			C198.66,77.28,197.52,78.42,196.11,78.42z M196.11,73.87c-1.1,0-2,0.9-2,2c0,1.1,0.9,2,2,2s2-0.9,2-2
			C198.11,74.77,197.21,73.87,196.11,73.87z"/>
	</g>
	<g>
		<path class="st0" d="M196.11,76.94c-0.59,0-1.07-0.48-1.07-1.07c0-0.59,0.48-1.07,1.07-1.07c0.59,0,1.07,0.48,1.07,1.07
			C197.18,76.46,196.7,76.94,196.11,76.94z M196.11,75.35c-0.29,0-0.52,0.23-0.52,0.52c0,0.29,0.23,0.52,0.52,0.52
			s0.52-0.23,0.52-0.52C196.63,75.58,196.4,75.35,196.11,75.35z"/>
	</g>
	<g>
		<polygon class="st0" points="164.34,148.25 157.2,148.25 157.2,99.12 157.76,99.12 157.76,147.7 164.34,147.7 		"/>
	</g>
	<g>
		<polygon class="st0" points="188.78,99.12 188.78,148.25 180.79,148.25 180.79,147.7 188.21,147.7 188.21,99.12 		"/>
	</g>
	<g>
		<path class="st0" d="M179.13,111.49c-0.09-0.09-0.15-0.18-0.24-0.26c-0.26-0.31-0.55-0.57-0.86-0.81
			c-0.09-0.09-0.18-0.18-0.29-0.24c-1.43-1.12-3.25-1.78-5.18-1.78h-0.15c-0.09,0-0.18,0-0.26,0.02c-1.93,0.09-3.73,0.81-5.18,2.08
			c-0.11,0.09-0.2,0.15-0.29,0.26c-0.07,0.04-0.11,0.09-0.15,0.13c-0.11,0.11-0.2,0.22-0.33,0.33v0.02
			c-0.07,0.09-0.15,0.18-0.22,0.24c-1.23,1.49-1.91,3.33-1.93,5.28v31.21l0.28,0.26h16.45l0.29-0.26v-31.07
			C181.08,114.85,180.33,112.96,179.13,111.49z M180.51,147.7h-15.9v-30.92c0.02-1.82,0.68-3.55,1.82-4.91
			c0.04-0.09,0.11-0.15,0.18-0.22c0.11-0.11,0.22-0.24,0.33-0.35c0.92-0.92,2.02-1.58,3.22-1.97c0.09-0.02,0.2-0.04,0.28-0.07
			c0.68-0.2,1.4-0.29,2.13-0.29c0.79,0,1.56,0.11,2.28,0.33c0.09,0.02,0.18,0.07,0.29,0.09c1.47,0.5,2.74,1.43,3.68,2.63
			c0.07,0.07,0.11,0.13,0.18,0.22v0.02c0.96,1.29,1.51,2.92,1.51,4.65V147.7z"/>
		<path class="st0" d="M180.51,116.91v30.79h-1.32v-30.79c0-1.38-0.42-2.68-1.14-3.73c-0.04-0.09-0.11-0.15-0.18-0.22
			c-0.68-0.96-1.64-1.71-2.74-2.17c-0.09-0.04-0.2-0.09-0.29-0.11c-0.7-0.26-1.47-0.42-2.28-0.42c-0.75,0-1.47,0.13-2.13,0.37
			c-0.11,0-0.2,0.04-0.28,0.09c-1.03,0.39-1.93,1.03-2.61,1.86c-0.09,0.07-0.13,0.15-0.18,0.22c-0.9,1.1-1.43,2.46-1.45,3.97v30.92
			h-1.32v-30.92c0.02-1.82,0.68-3.55,1.82-4.91c0.04-0.09,0.11-0.15,0.18-0.22c0.11-0.11,0.22-0.24,0.33-0.35
			c0.92-0.92,2.02-1.58,3.22-1.97c0.09-0.02,0.2-0.04,0.28-0.07c0.68-0.2,1.4-0.29,2.13-0.29c0.79,0,1.56,0.11,2.28,0.33
			c0.09,0.02,0.18,0.07,0.29,0.09c1.47,0.5,2.74,1.43,3.68,2.63c0.07,0.07,0.11,0.13,0.18,0.22v0.02
			C179.96,113.55,180.51,115.17,180.51,116.91z"/>
	</g>
	<g>
		<path class="st0" d="M178.05,113.18c-0.04-0.09-0.11-0.15-0.18-0.22c-0.68-0.96-1.64-1.71-2.74-2.17
			c-0.09-0.04-0.2-0.09-0.29-0.11c-0.7-0.26-1.47-0.42-2.28-0.42c-0.75,0-1.47,0.13-2.13,0.37c-0.11,0-0.2,0.04-0.28,0.09
			c-1.03,0.39-1.93,1.03-2.61,1.86c-0.09,0.07-0.13,0.15-0.18,0.22c-0.9,1.1-1.43,2.46-1.45,3.97v31.21l0.29,0.26h12.72l0.26-0.26
			v-31.07C179.19,115.53,178.78,114.23,178.05,113.18z M166.47,147.7v-30.79c0-3.36,2.74-6.07,6.1-6.07c3.36,0,6.07,2.72,6.07,6.07
			v30.79H166.47z"/>
	</g>
	<g>
		<rect x="157.48" y="105.45" class="st0" width="31.01" height="0.28"/>
	</g>
	<g>
		<rect x="178.69" y="111.22" class="st0" width="9.8" height="0.28"/>
	</g>
	<g>
		<rect x="157.48" y="111.22" class="st0" width="8.72" height="0.28"/>
	</g>
	<g>
		<rect x="180.79" y="117.17" class="st0" width="7.7" height="0.28"/>
	</g>
	<g>
		<rect x="157.48" y="116.77" class="st0" width="6.86" height="0.28"/>
	</g>
	<g>
		<rect x="180.79" y="123.82" class="st0" width="7.7" height="0.28"/>
	</g>
	<g>
		<rect x="157.48" y="123.82" class="st0" width="6.86" height="0.28"/>
	</g>
	<g>
		<rect x="180.79" y="133.38" class="st0" width="7.7" height="0.28"/>
	</g>
	<g>
		<rect x="157.48" y="133.38" class="st0" width="6.86" height="0.28"/>
	</g>
	<g>
		<rect x="180.79" y="141.02" class="st0" width="7.7" height="0.28"/>
	</g>
	<g>
		<rect x="157.48" y="141.02" class="st0" width="6.86" height="0.28"/>
	</g>
	<g>
		<rect x="185.5" y="99.12" class="st0" width="0.28" height="6.47"/>
	</g>
	<g>
		<rect x="183.08" y="105.59" class="st0" width="0.28" height="5.86"/>
	</g>
	<g>
		<rect x="179.69" y="99.12" class="st0" width="0.28" height="6.47"/>
	</g>
	<g>
		<rect x="174.85" y="99.12" class="st0" width="0.28" height="6.47"/>
	</g>
	<g>
		<rect x="170" y="99.12" class="st0" width="0.28" height="6.47"/>
	</g>
	<g>
		<rect x="165.16" y="99.12" class="st0" width="0.28" height="6.47"/>
	</g>
	<g>
		<rect x="160.19" y="99.12" class="st0" width="0.28" height="6.47"/>
	</g>
	<g>
		<rect x="177.74" y="105.59" class="st0" width="0.28" height="4.96"/>
	</g>
	<g>
		<rect x="172.14" y="105.59" class="st0" width="0.28" height="3.1"/>
	</g>
	<g>
		<rect x="166.7" y="105.59" class="st0" width="0.28" height="5.5"/>
	</g>
	<g>
		<rect x="161.96" y="105.59" class="st0" width="0.28" height="5.77"/>
	</g>
	<g>
		<rect x="185.5" y="111.36" class="st0" width="0.28" height="5.95"/>
	</g>
	<g>
		<rect x="159.71" y="111.36" class="st0" width="0.28" height="5.55"/>
	</g>
	<g>
		<path class="st0" d="M175.14,108.99v0.39c-0.11-0.02-0.2-0.07-0.29-0.09v-0.31H175.14z"/>
		<path class="st0" d="M175.14,110.79v0.24h-0.29v-0.35C174.94,110.7,175.05,110.75,175.14,110.79z"/>
	</g>
	<g>
		<path class="st0" d="M170.44,109.03v0.22c-0.09,0.02-0.2,0.04-0.28,0.07v-0.29H170.44z"/>
		<path class="st0" d="M170.44,110.64v0.33h-0.28v-0.24C170.25,110.68,170.33,110.64,170.44,110.64z"/>
	</g>
	<g>
		<path class="st0" d="M178.05,113.18l-0.18,0.18l-0.2-0.2l0.2-0.2C177.94,113.03,178.01,113.09,178.05,113.18z"/>
		<path class="st0" d="M179.15,112.08l-0.15,0.15c-0.07-0.09-0.11-0.15-0.18-0.22l0.13-0.13L179.15,112.08z"/>
	</g>
	<g>
		<path class="st0" d="M166.61,111.64c-0.07,0.07-0.13,0.13-0.18,0.22l-0.22-0.22l0.2-0.2L166.61,111.64z"/>
		<path class="st0" d="M167.75,112.78l-0.2,0.2l-0.18-0.18c0.04-0.07,0.09-0.15,0.18-0.22L167.75,112.78z"/>
	</g>
	<g>
		<rect x="178.93" y="117.17" class="st0" width="0.26" height="0.29"/>
		<rect x="180.51" y="117.17" class="st0" width="0.28" height="0.29"/>
	</g>
	<g>
		<rect x="164.35" y="116.78" class="st0" width="0.26" height="0.26"/>
		<rect x="165.93" y="116.78" class="st0" width="0.29" height="0.26"/>
	</g>
	<g>
		<rect x="178.93" y="123.82" class="st0" width="0.26" height="0.29"/>
		<rect x="180.51" y="123.82" class="st0" width="0.28" height="0.29"/>
	</g>
	<g>
		<rect x="164.35" y="123.82" class="st0" width="0.26" height="0.29"/>
		<rect x="165.93" y="123.82" class="st0" width="0.29" height="0.29"/>
	</g>
	<g>
		<rect x="191.17" y="99.12" class="st0" width="1.34" height="48.86"/>
	</g>
	<g>
		<rect x="195.66" y="99.12" class="st0" width="1.38" height="48.86"/>
	</g>
	<g>
		<rect x="199.24" y="99.12" class="st0" width="1.38" height="48.86"/>
	</g>
	<g>
		<rect x="203.69" y="99.12" class="st0" width="1.05" height="48.86"/>
	</g>
	<g>
		<rect x="207.79" y="99.12" class="st0" width="1.05" height="48.86"/>
	</g>
	<g>
		<rect x="211.98" y="99.12" class="st0" width="1.05" height="48.86"/>
	</g>
	<g>
		<polygon class="st0" points="211.98,99.39 211.98,99.47 208.84,102.59 208.84,99.39 		"/>
		<polygon class="st0" points="212.72,99.12 211.98,99.87 208.84,102.98 208.58,103.25 208.38,103.05 208.84,102.59 211.98,99.47 
			212.53,98.93 		"/>
	</g>
	<g>
		<polygon class="st0" points="207.75,99.39 204.74,102.39 204.74,99.39 		"/>
		<polygon class="st0" points="208.4,99.12 208.14,99.39 207.79,99.74 204.74,102.78 204.28,103.25 204.08,103.05 207.75,99.39 
			207.79,99.34 208.01,99.12 208.21,98.93 		"/>
	</g>
	<g>
		<polygon class="st0" points="203.67,99.39 200.62,102.41 200.62,99.39 		"/>
		<polygon class="st0" points="204.32,99.12 204.06,99.39 203.69,99.76 200.62,102.81 200.18,103.25 199.98,103.05 200.62,102.41 
			203.67,99.39 203.69,99.36 203.93,99.12 204.13,98.93 		"/>
	</g>
	<g>
		<polygon class="st0" points="199.24,99.39 199.24,99.67 197.04,101.84 197.04,99.39 		"/>
		<polygon class="st0" points="200.18,99.12 199.24,100.07 197.04,102.24 196.04,103.25 195.84,103.05 197.04,101.84 199.24,99.67 
			199.79,99.12 199.98,98.93 		"/>
	</g>
	<g>
		<polygon class="st0" points="195.66,99.39 195.66,99.41 192.5,102.54 192.5,99.39 		"/>
		<polygon class="st0" points="196.34,99.12 195.66,99.8 192.5,102.94 192.2,103.25 192,103.05 192.5,102.54 195.66,99.41 
			195.66,99.39 195.68,99.39 195.95,99.12 196.14,98.93 		"/>
	</g>
	<g>
		<polygon class="st0" points="191.17,99.39 191.17,100.15 188.78,102.54 188.78,99.39 		"/>
		
			<rect x="187.52" y="100.95" transform="matrix(0.7071 -0.7071 0.7071 0.7071 -15.7038 164.2563)" class="st0" width="5.83" height="0.28"/>
	</g>
	<g>
		
			<rect x="188.49" y="146.35" transform="matrix(-1 -4.565960e-11 4.565960e-11 -1 401.5276 294.6087)" class="st0" width="24.54" height="1.91"/>
	</g>
	<g>
		<path class="st0" d="M203.95,84.01v2.74h2.74v-2.74H203.95z M206.14,86.21h-1.64v-1.64h1.64V86.21z"/>
		<rect x="204.5" y="84.56" class="st0" width="1.64" height="1.64"/>
	</g>
	<g>
		<path class="st0" d="M203.95,88.57v2.74h2.74v-2.74H203.95z M206.14,90.77h-1.64v-1.64h1.64V90.77z"/>
		<rect x="204.5" y="89.12" class="st0" width="1.64" height="1.64"/>
	</g>
	<g>
		<path class="st0" d="M203.95,93.11v2.74h2.74v-2.74H203.95z M206.14,95.31h-1.64v-1.64h1.64V95.31z"/>
		<rect x="204.5" y="93.66" class="st0" width="1.64" height="1.64"/>
	</g>
	<g>
		<path class="st0" d="M190.11,84.01v12.65h12.65V84.01H190.11z M202.22,96.12h-11.56V84.56h11.56V96.12z"/>
	</g>
	<g>
		<path class="st0" d="M189.65,83.57v13.55h13.55V83.57H189.65z M202.92,96.84h-12.98V83.86h12.98V96.84z"/>
		<rect x="190.66" y="84.56" class="st0" width="11.56" height="11.56"/>
	</g>
	<g>
		<rect x="203.93" y="83.04" class="st0" width="4.91" height="0.28"/>
	</g>
	<g>
		<rect x="203.79" y="81.43" class="st0" width="0.28" height="16.75"/>
	</g>
	<g>
		<rect x="206.41" y="86.35" class="st0" width="2.42" height="0.28"/>
	</g>
	<g>
		<rect x="206.41" y="88.7" class="st0" width="2.42" height="0.28"/>
	</g>
	<g>
		<rect x="206.41" y="90.89" class="st0" width="2.42" height="0.28"/>
	</g>
	<g>
		<rect x="206.41" y="93.25" class="st0" width="2.42" height="0.28"/>
	</g>
	<g>
		<path class="st0" d="M186.1,84.01v2.74h2.74v-2.74H186.1z M188.29,86.21h-1.64v-1.64h1.64V86.21z"/>
		<rect x="186.65" y="84.56" class="st0" width="1.64" height="1.64"/>
	</g>
	<g>
		<path class="st0" d="M186.1,88.57v2.74h2.74v-2.74H186.1z M188.29,90.77h-1.64v-1.64h1.64V90.77z"/>
		<rect x="186.65" y="89.12" class="st0" width="1.64" height="1.64"/>
	</g>
	<g>
		<path class="st0" d="M186.1,93.11v2.74h2.74v-2.74H186.1z M188.29,95.31h-1.64v-1.64h1.64V95.31z"/>
		<rect x="186.65" y="93.66" class="st0" width="1.64" height="1.64"/>
	</g>
	<g>
		<rect x="183.94" y="83.04" class="st0" width="4.91" height="0.28"/>
	</g>
	<g>
		<rect x="188.72" y="81.43" class="st0" width="0.28" height="16.75"/>
	</g>
	<g>
		<rect x="183.94" y="86.35" class="st0" width="2.42" height="0.28"/>
	</g>
	<g>
		<rect x="183.94" y="88.7" class="st0" width="2.42" height="0.28"/>
	</g>
	<g>
		<rect x="183.94" y="90.89" class="st0" width="2.42" height="0.28"/>
	</g>
	<g>
		<rect x="183.94" y="93.25" class="st0" width="2.42" height="0.28"/>
	</g>
	<g>
		<rect x="203.93" y="96.84" class="st0" width="4.91" height="0.28"/>
	</g>
	<g>
		<rect x="188.86" y="82.46" class="st0" width="15.07" height="0.28"/>
	</g>
	<g>
		<path class="st0" d="M148.14,87.7v9.56h28.93V87.7H148.14z M176.52,96.71h-27.83v-8.47h27.83V96.71z"/>
		<rect x="148.69" y="88.25" class="st0" width="27.83" height="8.47"/>
	</g>
	<g>
		<rect x="194.72" y="69.89" class="st0" width="0.26" height="0.55"/>
	</g>
	<g>
		<path class="st0" d="M112.11,71.27v20.31h17.1V71.27H112.11z M128.67,91.03h-16.01V71.82h16.01V91.03z"/>
		<path class="st0" d="M112.66,71.82v19.21h16.01V71.82H112.66z M128.43,90.66H112.9V72.21h15.53V90.66z"/>
	</g>
	<g>
		<path class="st0" d="M112.9,72.21v18.44h15.53V72.21H112.9z M127.92,90.15H113.4V72.72h14.52V90.15z"/>
	</g>
	<g>
		<path class="st0" d="M126.47,86.42v1.92h-11.61v-1.42c0,0,1.88-2.16,2.95-2.35c0,0,1.19-0.3,1.23-0.77
			c0.37,0.49,0.84,0.77,1.34,0.77c0.56,0,1.03-0.35,1.38-0.91c0.19,0.13,1.64,0.99,2.31,1.23
			C124.08,84.89,126.47,85.99,126.47,86.42z"/>
		<path class="st0" d="M126.75,88.62h-12.15v-1.79l0.07-0.08c0.2-0.23,1.98-2.24,3.11-2.44c0.52-0.13,1-0.4,1-0.52l0.06-0.71
			l0.44,0.57c0.23,0.3,0.61,0.66,1.13,0.66c0.54,0,0.92-0.43,1.15-0.79l0.15-0.24l0.24,0.16c0.18,0.13,1.61,0.97,2.25,1.2
			c2.57,1.18,2.57,1.64,2.57,1.79V88.62z M115.14,88.07h11.06v-1.62c-0.15-0.24-1.26-0.87-2.23-1.31c-0.56-0.2-1.63-0.81-2.12-1.11
			c-0.75,0.99-1.92,1.06-2.76,0.24c-0.34,0.33-0.97,0.51-1.21,0.57c-0.78,0.14-2.18,1.56-2.74,2.19V88.07z"/>
	</g>
	<g>
		<path class="st0" d="M114.59,87.66V74.25h12.15v12.18h-0.55c-0.1-0.18-1.24-0.82-2.23-1.28c-0.56-0.2-1.63-0.81-2.12-1.11
			c-0.75,0.99-1.92,1.06-2.76,0.24c-0.34,0.33-0.97,0.51-1.21,0.57c-0.81,0.14-2.3,1.68-2.81,2.26L114.59,87.66z M115.14,74.79
			v11.43c0.66-0.68,1.81-1.78,2.63-1.92c0.52-0.13,1-0.4,1-0.52l0.06-0.71l0.44,0.57c0.23,0.3,0.61,0.66,1.13,0.66
			c0.54,0,0.92-0.43,1.15-0.79l0.15-0.24l0.24,0.16c0.18,0.13,1.61,0.97,2.25,1.2c1.03,0.48,1.65,0.83,2.02,1.1V74.79H115.14z"/>
	</g>
	<g>
		<polygon class="st0" points="157.42,148.24 155.72,147.83 155.72,99.12 156.27,99.12 156.27,147.4 157.55,147.71 		"/>
	</g>
	<g>
		<polygon class="st0" points="157.44,141.29 155.96,140.89 156.03,140.62 157.52,141.02 		"/>
	</g>
	<g>
		<polygon class="st0" points="157.44,133.65 155.96,133.25 156.03,132.98 157.52,133.38 		"/>
	</g>
	<g>
		<polygon class="st0" points="157.44,124.03 155.96,123.63 156.03,123.36 157.52,123.76 		"/>
	</g>
	<g>
		
			<rect x="156.6" y="115.67" transform="matrix(0.4769 -0.879 0.879 0.4769 -20.4245 198.7189)" class="st0" width="0.28" height="1.69"/>
	</g>
	<g>
		<polygon class="st0" points="157.44,111.5 155.96,111.1 156.03,110.83 157.52,111.23 		"/>
	</g>
	<g>
		<polygon class="st0" points="157.44,105.76 155.96,105.35 156.03,105.08 157.52,105.49 		"/>
	</g>
	<g>
		<polygon class="st0" points="83.56,148.15 83.39,147.8 84.02,147.49 84.02,99.12 84.41,99.12 84.41,147.74 		"/>
	</g>
	<g>
		<polygon class="st0" points="83.52,141.24 83.43,141.07 84.17,140.67 84.27,140.84 		"/>
	</g>
	<g>
		<polygon class="st0" points="83.52,133.61 83.43,133.43 84.17,133.03 84.27,133.2 		"/>
	</g>
	<g>
		<polygon class="st0" points="83.52,123.99 83.43,123.81 84.17,123.41 84.27,123.58 		"/>
	</g>
	<g>
		<polygon class="st0" points="83.55,116.99 83.4,116.86 84.15,116.05 84.29,116.18 		"/>
	</g>
	<g>
		<polygon class="st0" points="83.52,111.46 83.43,111.28 84.17,110.88 84.27,111.05 		"/>
	</g>
	<g>
		<polygon class="st0" points="83.52,105.71 83.43,105.53 84.17,105.13 84.27,105.31 		"/>
	</g>
	<g>
		<path class="st0" d="M124.08,79.07c0,1.44-0.73,2.69-1.81,3.34c0.09-0.37,0.17-0.77,0.22-1.19c0.24-2.24-0.95-3.36-2.11-3.36
			c-1.16,0-2.11,1.49-2.11,3.36c0,0.28,0.02,0.54,0.06,0.8c-0.78-0.71-1.29-1.75-1.29-2.95c0-2.11,1.59-3.83,3.53-3.83
			C122.5,75.25,124.08,76.96,124.08,79.07z"/>
	</g>
	<g>
		<path class="st0" d="M120.39,84.72c-0.54,0-1.04-0.28-1.46-0.82c-0.34-0.45-0.58-1.05-0.7-1.74h0l-0.04-0.12
			c-0.04-0.28-0.06-0.54-0.06-0.82c0-1.93,1.01-3.5,2.25-3.5c0.58,0,1.13,0.25,1.54,0.71c0.58,0.65,0.83,1.64,0.7,2.8v0
			c-0.06,0.43-0.13,0.82-0.23,1.21c-0.13,0.49-0.3,0.91-0.52,1.29C121.48,84.38,120.96,84.72,120.39,84.72z M118.46,81.9l0.03,0.1
			c0.1,0.69,0.33,1.29,0.66,1.73c0.36,0.46,0.78,0.71,1.23,0.71c0.6,0,1.02-0.46,1.26-0.85c0.2-0.35,0.36-0.75,0.49-1.21
			c0.09-0.37,0.17-0.76,0.22-1.17c0.12-1.08-0.11-2-0.63-2.58c-0.36-0.4-0.83-0.62-1.33-0.62c-1.09,0-1.97,1.45-1.97,3.22
			C118.42,81.45,118.43,81.67,118.46,81.9z"/>
	</g>
	<g>
		<polygon class="st0" points="121.77,83.8 121.75,83.8 121.75,83.52 		"/>
	</g>
	<g>
		<rect x="99.75" y="81.07" class="st0" width="12.63" height="0.63"/>
	</g>
	<g>
		<rect x="128.94" y="81.07" class="st0" width="12.13" height="0.63"/>
	</g>
</g>
</svg>
